<svg width="340" height="340" viewBox="0 0 340 340" fill="none" xmlns="http://www.w3.org/2000/svg">
<path d="M326.192 94.144C325.708 82.0274 321.396 70.3761 313.875 60.864L313.82 60.797C312.261 58.8779 310.564 57.0748 308.743 55.402C308.603 55.273 308.451 55.157 308.309 55.029C307.975 54.729 307.623 54.438 307.276 54.144C306.802 53.744 306.331 53.336 305.843 52.95C305.68 52.822 305.506 52.7 305.343 52.574C292.218 42.474 273.943 38.388 250.887 40.467C249.243 40.582 224.937 42.578 182.809 61.938C182.462 62.088 151.458 75.298 124.323 75.257C121.156 75.2797 117.991 75.1248 114.842 74.793C108.828 73.8949 103.146 71.4658 98.342 67.739C98.291 67.7 98.232 67.677 98.179 67.639C93.5747 64.0886 89.8966 59.4781 87.458 54.2C85.2958 49.6685 83.4322 45.0006 81.879 40.226C79.679 33.031 72.903 15.871 57.479 11.926C54.7918 11.2417 51.9579 11.4157 49.3747 12.4236C46.7914 13.4315 44.5885 15.2228 43.0748 17.5461C41.5612 19.8695 40.8128 22.6084 40.9346 25.3786C41.0564 28.1488 42.0423 30.8115 43.754 32.993C43.871 33.141 43.99 33.293 44.105 33.431C50.4328 40.9762 54.4856 50.1645 55.791 59.925C56.0536 62.1353 56.2034 64.3575 56.24 66.583C56.25 66.85 57.36 90.462 79.421 102.943C73.3126 105.456 67.3735 108.362 61.641 111.643C58.8039 113.274 56.099 115.125 53.551 117.179C53.367 117.258 52.131 118.362 50.786 119.59C47.9869 122.137 45.4631 124.971 43.256 128.045C40.32 132.145 36.432 138.164 34.396 143.739C33.2974 146.696 32.3813 149.718 31.653 152.787C31.3902 153.831 31.5455 154.937 32.0856 155.868C32.6258 156.8 33.5082 157.483 34.545 157.774C35.0605 157.901 35.5962 157.924 36.1207 157.841C36.6452 157.759 37.148 157.573 37.5999 157.294C38.0518 157.016 38.4437 156.65 38.7528 156.218C39.0618 155.786 39.2818 155.298 39.4 154.78C40.0605 151.963 40.8978 149.191 41.907 146.48C44.7252 138.828 49.2775 131.933 55.207 126.336C58.7193 129.159 62.8173 131.162 67.2021 132.2C71.587 133.238 76.1483 133.285 80.5534 132.336C84.9585 131.388 89.0964 129.468 92.6655 126.717C96.2345 123.967 99.1448 120.454 101.184 116.436C101.618 115.602 101.75 114.644 101.557 113.724C101.364 112.804 100.858 111.98 100.125 111.391C99.6589 111.026 99.1176 110.77 98.5403 110.64C97.963 110.51 97.3641 110.509 96.7866 110.638C96.2091 110.768 95.6675 111.024 95.2009 111.388C94.7342 111.751 94.3541 112.214 94.088 112.743C92.6585 115.582 90.6387 118.082 88.164 120.076C85.6894 122.071 82.817 123.513 79.7394 124.307C76.6618 125.1 73.4501 125.227 70.3195 124.678C67.189 124.129 64.212 122.917 61.588 121.124C62.8867 120.221 64.2287 119.372 65.614 118.578C89.414 104.942 115.294 99.257 139.832 97.953C141.862 102.692 145.234 106.733 149.532 109.58C153.831 112.426 158.868 113.953 164.023 113.973C168.748 113.987 173.388 112.72 177.451 110.308C181.513 107.896 184.846 104.428 187.096 100.273C199.081 102.005 210.946 104.481 222.623 107.688C222.805 110.953 223.735 114.133 225.341 116.982C226.948 119.831 229.187 122.273 231.887 124.119C234.587 125.965 237.675 127.165 240.913 127.628C244.15 128.091 247.451 127.804 250.56 126.788C251.535 126.476 252.358 125.81 252.867 124.922C253.375 124.033 253.534 122.987 253.31 121.988C253.178 121.451 252.936 120.948 252.599 120.509C252.262 120.071 251.838 119.707 251.354 119.44C250.869 119.174 250.335 119.011 249.784 118.961C249.233 118.912 248.678 118.977 248.154 119.153C246.443 119.724 244.635 119.942 242.837 119.794C241.04 119.647 239.291 119.137 237.696 118.295C236.101 117.454 234.693 116.298 233.557 114.897C232.421 113.496 231.581 111.88 231.086 110.146C236.394 111.784 240.455 113.218 242.966 114.146C246.601 115.518 250.412 116.367 254.285 116.667C261.65 117.196 267.005 115.579 270.215 111.867C271.43 110.387 272.302 108.656 272.768 106.799C273.234 104.942 273.283 103.004 272.91 101.126C272.903 101.092 272.887 101.062 272.878 101.026C272.869 100.99 272.87 100.958 272.861 100.926C272.351 99.0365 271.548 97.2386 270.481 95.598C271.502 92.9994 271.937 90.2075 271.756 87.4213C271.574 84.6352 270.78 81.9235 269.43 79.4795C268.08 77.0356 266.207 74.9196 263.945 73.2824C261.684 71.6453 259.089 70.5273 256.345 70.0083C253.602 69.4892 250.778 69.5818 248.074 70.2795C245.371 70.9772 242.855 72.2628 240.705 74.0447C238.555 75.8265 236.826 78.0606 235.639 80.5878C234.452 83.115 233.837 85.8729 233.838 88.665C233.838 88.906 233.852 89.149 233.862 89.392C232.719 89.676 231.562 89.977 230.375 90.311C229.389 90.571 228.534 91.1875 227.976 92.0412C227.418 92.895 227.196 93.9253 227.354 94.933C227.455 95.4809 227.669 96.0017 227.983 96.462C228.297 96.9224 228.703 97.3121 229.176 97.6062C229.649 97.9003 230.179 98.0923 230.731 98.1699C231.282 98.2476 231.844 98.2091 232.38 98.057C234.742 97.388 239.151 96.379 239.162 96.377C250.434 94.277 257.177 93.864 262.32 98.351C263.424 99.271 264.264 100.468 264.753 101.82C265.123 102.757 265.224 103.779 265.044 104.771C264.915 105.457 264.612 106.099 264.164 106.635C262.735 108.287 259.429 109.017 254.857 108.688C251.74 108.442 248.674 107.755 245.751 106.647C242.344 105.382 236.187 103.229 227.951 100.872C227.873 100.846 227.792 100.826 227.712 100.804C213.924 96.8747 199.873 93.9399 185.665 92.022C185.538 91.9821 185.41 91.9487 185.28 91.922C171.078 89.9931 156.738 89.2815 142.415 89.795C142.276 89.8093 142.138 89.8307 142.001 89.859C137.043 90.059 132.026 90.433 126.972 91.002C128.061 88.5098 128.717 85.8499 128.911 83.137C156.302 81.902 184.577 69.861 186.054 69.223C188.182 68.245 190.254 67.323 192.287 66.435C194.374 69.1643 197.084 71.3553 200.189 72.8254C203.295 74.2956 206.707 75.0024 210.141 74.887C213.575 74.7715 216.932 73.8371 219.932 72.1617C222.932 70.4863 225.488 68.1183 227.387 65.255C227.957 64.4062 228.189 63.3746 228.037 62.3633C227.884 61.3521 227.358 60.4347 226.563 59.792C226.116 59.4461 225.602 59.1987 225.053 59.066C224.504 58.9334 223.933 58.9186 223.378 59.0225C222.822 59.1264 222.295 59.3467 221.832 59.669C221.368 59.9912 220.977 60.408 220.686 60.892C219.938 62.2613 218.89 63.4438 217.62 64.351C211.384 68.414 204.42 67.323 200.051 63.151C232.684 49.851 251.251 48.434 251.451 48.421L251.551 48.413C268.434 46.884 282.365 48.87 293.158 54.313C291.58 57.8722 290.916 61.7693 291.228 65.6501C291.539 69.5309 292.815 73.2724 294.941 76.5345C297.066 79.7966 299.973 82.4758 303.397 84.3287C306.821 86.1816 310.654 87.1493 314.547 87.144C315.464 87.1386 316.379 87.0798 317.289 86.968C317.794 89.3506 318.093 91.7722 318.183 94.206C318.183 94.245 318.193 94.281 318.194 94.32C318.195 94.359 318.187 94.396 318.194 94.436C319.016 108.885 316.851 121.541 311.75 132.314C306.184 130.199 300.115 129.788 294.315 131.132C288.514 132.476 283.244 135.515 279.176 139.862C278.799 140.259 278.505 140.727 278.31 141.239C278.116 141.751 278.024 142.296 278.041 142.843C278.058 143.39 278.183 143.929 278.408 144.428C278.634 144.926 278.957 145.375 279.357 145.749C280.142 146.429 281.16 146.777 282.197 146.719C283.234 146.662 284.208 146.203 284.913 145.441C287.758 142.362 291.422 140.158 295.475 139.088C299.528 138.017 303.802 138.125 307.796 139.398C304.011 145.18 299.295 150.295 293.838 154.536C293.056 155.14 292.519 156.008 292.329 156.978C292.138 157.948 292.306 158.954 292.801 159.81C293.093 160.295 293.485 160.713 293.951 161.035C294.417 161.358 294.946 161.577 295.503 161.68C296.06 161.783 296.633 161.766 297.183 161.63C297.733 161.495 298.248 161.244 298.694 160.895C306.076 155.141 312.23 147.966 316.794 139.795C316.886 139.675 316.972 139.551 317.05 139.421C317.109 139.312 317.143 139.197 317.191 139.085C323.242 127.948 327.256 113.265 326.192 94.144ZM120.9 83.194C120.394 87.707 118.286 91.25 115.107 92.726C106.595 94.2011 98.203 96.3021 90 99.012C65.52 90.165 64.277 67.283 64.239 66.381C64.1971 63.9075 64.0302 61.4377 63.739 58.981C62.2522 47.7104 57.5913 37.095 50.3 28.373L50.039 28.047C49.359 27.1793 48.9677 26.1205 48.9199 25.0192C48.872 23.9178 49.1702 22.8291 49.7724 21.9057C50.3746 20.9824 51.2508 20.2707 52.2779 19.8704C53.3051 19.4702 54.4318 19.4015 55.5 19.674C66.99 22.614 72.425 36.659 74.228 42.561C75.8837 47.6879 77.8788 52.699 80.2 57.561C82.7785 63.1347 86.4908 68.1096 91.1 72.168C89.6033 76.7718 89.6938 81.7446 91.357 86.291C91.723 87.2867 92.4696 88.0963 93.4325 88.5416C94.3954 88.9869 95.4957 89.0315 96.4915 88.6655C97.4873 88.2995 98.2968 87.5529 98.7421 86.59C99.1874 85.6271 99.232 84.5267 98.866 83.531C98.1306 81.5148 97.8812 79.3537 98.138 77.223C98.138 77.223 105.089 82.376 120.9 83.194ZM241.88 87.771C241.88 87.771 242.631 77.7 252.828 77.7C255.74 77.704 258.532 78.8626 260.591 80.9218C262.65 82.981 263.809 85.7728 263.813 88.685C263.813 89.0183 263.798 89.349 263.767 89.677C257.154 87.162 249.784 86.731 241.88 87.771ZM178.291 99.165C176.578 101.299 174.406 103.02 171.937 104.199C169.468 105.379 166.764 105.987 164.028 105.978C160.985 105.968 157.992 105.204 155.317 103.753C152.642 102.302 150.368 100.211 148.7 97.666C159.177 97.666 168.792 98.281 178.291 99.165ZM314.557 79.165C310.476 79.1602 306.563 77.5368 303.677 74.6509C300.791 71.765 299.168 67.8523 299.163 63.771C299.301 62.0259 299.599 60.2972 300.055 58.607C307.576 63.2102 312.977 70.5943 315.087 79.156C315.087 79.156 314.734 79.165 314.557 79.165Z" fill="#614522"/>
<path d="M301.2 202.865C301.881 191.165 298.076 179.344 289.976 168.316C281.242 156.424 253.222 128.208 181.827 123.016C162.8 121.474 143.656 122.213 124.804 125.216C110.402 127.386 96.3062 131.249 82.81 136.725C82.4544 136.819 82.1135 136.962 81.797 137.15C60.934 145.973 44.197 158.536 32.397 174.412C9.00001 205.9 7.33701 248.318 28.251 279.962C38.851 296.006 54.167 308.18 73.763 316.143C84.0364 320.253 94.8238 322.938 105.825 324.123C122.688 326.029 156.531 328.304 193.718 322.13C199.796 321.1 206.045 322.002 211.584 324.709C216.841 327.239 222.606 328.539 228.441 328.509C229.297 328.509 230.156 328.482 231.018 328.428L257.363 326.782C263.48 326.454 269.369 324.35 274.309 320.727C275.252 320.023 276.153 319.266 277.009 318.459C278.634 316.925 279.897 315.049 280.709 312.967C283.574 313.303 286.361 314.131 288.945 315.413C290.131 316.085 291.317 316.776 292.504 317.468C300.197 321.955 308.154 326.594 316.929 326.594C317.99 326.594 319.007 326.173 319.757 325.422C320.508 324.672 320.929 323.655 320.929 322.594C320.929 321.533 320.508 320.516 319.757 319.766C319.007 319.015 317.99 318.594 316.929 318.594C315.203 318.578 313.486 318.339 311.821 317.883C315.348 316.264 318.312 313.632 320.337 310.321C320.893 309.417 321.066 308.33 320.82 307.298C320.574 306.266 319.928 305.374 319.025 304.818C318.121 304.263 317.033 304.089 316.001 304.335C314.97 304.581 314.078 305.227 313.522 306.131C312.234 308.251 310.301 309.903 308.005 310.843C305.959 311.669 303.75 312.009 301.551 311.838C299.352 311.667 297.222 310.989 295.329 309.857L295.181 309.771C295.165 309.762 295.148 309.758 295.133 309.749C294.385 309.314 293.633 308.876 292.889 308.449C289.345 306.629 285.502 305.463 281.545 305.006C281.159 302.64 280.21 300.402 278.778 298.48C277.346 296.558 275.472 295.008 273.316 293.961C266.203 290.417 259.282 286.501 252.581 282.229C238.556 273.415 221.742 270.163 205.442 273.11C201.687 273.735 197.988 274.663 194.382 275.883C189.422 276.558 136.82 282.842 107.693 251.019C133.884 263.709 163.493 267.476 186.986 267.683C200.612 267.747 214.208 266.424 227.566 263.733C234.938 262.319 242.511 260.501 250.289 258.209C251.958 257.749 289.971 246.909 299.422 213.243L299.444 213.168C300.45 209.819 301.04 206.358 301.2 202.865V202.865ZM198.133 259.344C198.256 256.421 199.418 253.638 201.411 251.496C203.403 249.354 206.095 247.993 209.001 247.659C211.907 247.324 214.837 248.038 217.264 249.672C219.691 251.305 221.455 253.751 222.239 256.57C214.31 258.26 206.238 259.188 198.133 259.344ZM283.267 227.404C281.331 225.232 280.028 222.571 279.499 219.711C278.97 216.85 279.235 213.899 280.266 211.178C281.297 208.458 283.054 206.072 285.346 204.281C287.639 202.489 290.378 201.36 293.267 201.017C292.322 210.54 288.871 219.643 283.267 227.4V227.404ZM206.406 134.077L206.69 134.127C205.83 136.133 204.337 137.802 202.438 138.879C200.539 139.955 198.34 140.379 196.177 140.086C194.014 139.793 192.007 138.799 190.463 137.257C188.919 135.714 187.923 133.708 187.628 131.545C194.109 132.17 200.4 133.02 206.406 134.077ZM122.782 193.653C137.51 187.044 147.724 185.43 166.059 183.622C172.418 183.324 178.791 183.464 185.131 184.041C185.164 184.041 185.195 184.058 185.231 184.062C191.824 184.597 198.339 185.847 204.662 187.791C204.772 187.827 204.884 187.845 204.996 187.871C209.902 189.334 214.454 191.79 218.371 195.087C218.781 195.451 219.093 195.913 219.277 196.429C219.462 196.945 219.514 197.499 219.429 198.041C219.353 198.554 219.15 199.04 218.838 199.454C218.526 199.869 218.114 200.198 217.642 200.412C217.232 200.597 216.811 200.757 216.381 200.891C213.615 201.529 171.224 210.898 140.304 194.238C139.814 193.974 139.274 193.815 138.718 193.771C138.163 193.728 137.605 193.801 137.079 193.986C136.554 194.17 136.072 194.463 135.667 194.844C135.261 195.226 134.939 195.688 134.722 196.201C134.349 197.141 134.336 198.187 134.687 199.136C135.037 200.085 135.727 200.871 136.622 201.342C141.541 203.955 146.711 206.064 152.055 207.635C150.368 209.509 148.254 210.949 145.894 211.834C143.533 212.72 140.993 213.024 138.49 212.722C135.987 212.42 133.593 211.519 131.511 210.098C129.428 208.676 127.719 206.774 126.526 204.552C126.282 204.086 125.949 203.673 125.546 203.336C125.142 202.999 124.676 202.745 124.174 202.588C123.672 202.431 123.144 202.375 122.621 202.422C122.097 202.47 121.588 202.62 121.122 202.865C120.657 203.109 120.244 203.443 119.907 203.847C119.571 204.251 119.318 204.717 119.162 205.22C119.006 205.722 118.95 206.25 118.999 206.773C119.047 207.297 119.198 207.806 119.443 208.271C121.399 211.94 124.285 215.03 127.811 217.232C131.338 219.435 135.381 220.672 139.536 220.82C143.691 220.968 147.811 220.022 151.486 218.076C155.16 216.131 158.258 213.254 160.471 209.734C165.336 210.719 170.259 211.396 175.209 211.759C176.014 216.299 178.45 220.389 182.06 223.258C185.67 226.126 190.205 227.577 194.809 227.335C199.414 227.093 203.772 225.177 207.062 221.946C210.352 218.715 212.347 214.393 212.672 209.793C215.985 209.209 218.042 208.721 218.418 208.629C218.457 208.62 218.491 208.601 218.529 208.59C218.567 208.579 218.609 208.579 218.648 208.566C219.443 208.323 220.221 208.029 220.977 207.684C221.032 207.659 221.077 207.625 221.135 207.6C223.084 209.223 225.367 210.397 227.821 211.037C230.275 211.677 232.841 211.768 235.334 211.304C237.828 210.84 240.188 209.832 242.248 208.351C244.307 206.87 246.015 204.954 247.249 202.738C248.483 200.522 249.214 198.061 249.388 195.531C249.563 193 249.178 190.463 248.26 188.098C247.342 185.734 245.913 183.601 244.077 181.851C242.241 180.102 240.041 178.778 237.635 177.976C236.624 177.613 235.512 177.656 234.532 178.097C233.552 178.537 232.781 179.34 232.381 180.337C232.198 180.844 232.119 181.382 232.149 181.921C232.179 182.459 232.317 182.985 232.556 183.468C232.795 183.952 233.129 184.382 233.537 184.733C233.946 185.084 234.422 185.348 234.936 185.511C236.271 185.905 237.497 186.601 238.518 187.546C239.54 188.49 240.33 189.658 240.827 190.958C241.369 192.364 241.561 193.882 241.387 195.379C241.213 196.876 240.677 198.308 239.826 199.553C238.975 200.797 237.835 201.816 236.503 202.521C235.171 203.227 233.687 203.598 232.18 203.603C230.183 203.604 228.24 202.951 226.649 201.743C226.976 200.944 227.208 200.11 227.342 199.257C227.627 197.407 227.448 195.515 226.819 193.752C226.191 191.989 225.133 190.409 223.742 189.157C220.48 186.309 216.779 184.004 212.784 182.333C214.607 179.433 215.557 176.069 215.519 172.644C215.47 167.893 213.542 163.354 210.158 160.018C206.773 156.683 202.207 154.823 197.455 154.843C192.703 154.863 188.153 156.763 184.797 160.127C181.441 163.491 179.553 168.046 179.544 172.798C179.547 173.751 179.627 174.703 179.782 175.643C175.019 175.389 170.245 175.389 165.482 175.643L165.357 175.653C156.431 176.482 147.577 177.956 138.864 180.066C137.913 177.903 137.759 175.472 138.431 173.207C139.103 170.941 140.557 168.987 142.534 167.693C144.511 166.398 146.883 165.846 149.228 166.135C151.573 166.425 153.74 167.537 155.343 169.273C156.004 169.997 156.903 170.458 157.876 170.573C158.85 170.688 159.832 170.449 160.643 169.899C161.108 169.572 161.497 169.15 161.786 168.661C162.075 168.172 162.256 167.627 162.318 167.062C162.38 166.498 162.32 165.927 162.144 165.387C161.968 164.847 161.679 164.35 161.296 163.931C158.851 161.25 155.653 159.37 152.121 158.539C148.589 157.709 144.888 157.966 141.505 159.277C138.121 160.587 135.213 162.891 133.163 165.884C131.112 168.878 130.015 172.422 130.015 176.05C130.013 178.16 130.385 180.254 131.115 182.234C127.827 183.271 124.722 184.409 121.799 185.648C120.506 183.377 118.734 181.416 116.606 179.9C114.477 178.384 112.044 177.35 109.476 176.871C106.907 176.391 104.265 176.477 101.733 177.123C99.2009 177.769 96.8402 178.959 94.8152 180.61C92.7902 182.262 91.1495 184.335 90.0075 186.685C88.8654 189.035 88.2494 191.606 88.2023 194.219C88.1553 196.831 88.6784 199.423 89.7351 201.812C90.7918 204.202 92.3568 206.333 94.321 208.056C90.5873 215.145 89.0186 223.174 89.81 231.147C90.6013 239.119 93.7177 246.684 98.772 252.9C131.379 293.435 193.382 284.145 196.006 283.73C196.302 283.683 196.592 283.603 196.87 283.492C205.33 280.59 214.325 279.58 223.218 280.533C232.111 281.487 240.687 284.38 248.34 289.01C255.286 293.434 262.461 297.49 269.833 301.161C270.852 301.647 271.736 302.377 272.406 303.286C273.076 304.195 273.511 305.255 273.674 306.373C273.764 306.956 273.783 307.547 273.73 308.134C273.73 308.154 273.72 308.172 273.719 308.193C273.718 308.199 273.718 308.205 273.719 308.211C273.546 309.903 272.764 311.476 271.519 312.635C270.885 313.231 270.217 313.79 269.519 314.31C265.824 317.003 261.424 318.56 256.858 318.792L230.513 320.439C225.206 320.814 219.893 319.808 215.091 317.517C208.058 314.076 200.122 312.928 192.402 314.235C156.172 320.248 123.167 318.028 106.717 316.17C96.4418 315.066 86.3658 312.562 76.769 308.728C58.696 301.383 44.615 290.22 34.919 275.547C15.855 246.702 17.419 207.971 38.812 179.17C50.681 163.191 66.718 152.447 83.239 145.228C84.3283 146.305 85.1263 147.641 85.5581 149.111C85.9898 150.58 86.0413 152.136 85.7075 153.631C85.3738 155.126 84.6658 156.511 83.6501 157.658C82.6343 158.805 81.3439 159.674 79.9 160.186C78.6359 160.628 77.29 160.786 75.9579 160.649C74.6258 160.512 73.3401 160.084 72.192 159.395C71.3579 158.88 70.3662 158.682 69.3981 158.837C68.43 158.992 67.5501 159.491 66.919 160.241C66.561 160.683 66.3013 161.196 66.1572 161.746C66.0132 162.296 65.9881 162.871 66.0837 163.431C66.1793 163.992 66.3933 164.526 66.7115 164.997C67.0297 165.469 67.4448 165.867 67.929 166.165C71.2481 168.209 75.1672 169.055 79.0338 168.561C82.9004 168.067 86.4812 166.264 89.1799 163.451C91.8787 160.638 93.5327 156.986 93.8664 153.102C94.2001 149.219 93.1934 145.338 91.014 142.106C101.044 138.432 111.38 135.657 121.901 133.813C122.573 137.08 124.14 140.096 126.427 142.524C128.714 144.951 131.631 146.696 134.852 147.561C138.073 148.427 141.472 148.381 144.668 147.426C147.864 146.472 150.732 144.649 152.951 142.159C153.661 141.406 154.065 140.415 154.083 139.38C154.1 138.346 153.73 137.341 153.046 136.565C152.662 136.157 152.197 135.834 151.681 135.618C151.165 135.401 150.609 135.295 150.049 135.307C149.489 135.319 148.938 135.448 148.431 135.686C147.924 135.924 147.473 136.266 147.107 136.69C145.95 138.075 144.43 139.11 142.717 139.679C141.404 140.115 140.014 140.274 138.637 140.146C137.259 140.019 135.922 139.607 134.712 138.937C133.501 138.268 132.442 137.355 131.601 136.256C130.761 135.156 130.157 133.895 129.828 132.551C146.305 130.259 162.976 129.686 179.571 130.843C179.717 135.07 181.35 139.109 184.182 142.25C187.014 145.39 190.864 147.43 195.053 148.01C199.242 148.591 203.501 147.674 207.081 145.421C210.66 143.168 213.329 139.725 214.618 135.697C224.972 137.896 235.094 141.07 244.85 145.176C244.384 148.294 244.59 151.475 245.453 154.507C246.317 157.539 247.818 160.351 249.857 162.755C251.896 165.159 254.425 167.1 257.275 168.448C260.125 169.795 263.23 170.517 266.382 170.567C267.468 170.613 268.531 170.24 269.351 169.527C270.172 168.814 270.688 167.813 270.794 166.731C270.816 166.192 270.728 165.655 270.537 165.151C270.346 164.647 270.055 164.187 269.681 163.798C269.307 163.409 268.859 163.1 268.363 162.889C267.867 162.678 267.333 162.57 266.794 162.57C263.107 162.563 259.567 161.123 256.923 158.553C254.278 155.983 252.738 152.486 252.626 148.8C271.091 158.149 280.145 168.451 283.526 173.054C288.013 178.952 291.113 185.786 292.595 193.047C288.155 193.521 283.936 195.229 280.418 197.978C276.899 200.727 274.221 204.407 272.686 208.6C271.152 212.793 270.823 217.333 271.737 221.704C272.651 226.074 274.771 230.102 277.857 233.329C264.851 245.704 248.415 250.429 248.166 250.503C248.155 250.503 248.145 250.512 248.134 250.515C248.123 250.518 248.112 250.515 248.101 250.521C241.966 252.33 235.964 253.834 230.093 255.072C228.929 250.269 226.05 246.057 221.998 243.228C217.946 240.399 213 239.148 208.09 239.711C203.181 240.273 198.646 242.61 195.338 246.282C192.031 249.954 190.18 254.708 190.132 259.65C173.251 259.944 156.407 257.975 140.05 253.794C141.397 249.825 141.495 245.538 140.329 241.511C139.164 237.485 136.791 233.913 133.532 231.277C130.273 228.642 126.283 227.069 122.102 226.772C117.921 226.475 113.749 227.467 110.15 229.615C109.328 230.08 108.694 230.818 108.356 231.7C108.019 232.582 107.999 233.555 108.3 234.45C108.498 235.012 108.82 235.523 109.241 235.946C109.662 236.368 110.172 236.691 110.733 236.891C111.295 237.091 111.894 237.164 112.487 237.103C113.081 237.042 113.653 236.849 114.162 236.539C115.862 235.51 117.781 234.899 119.763 234.756C121.744 234.613 123.732 234.941 125.562 235.714C127.265 236.429 128.785 237.518 130.01 238.9C131.236 240.283 132.134 241.923 132.64 243.699C133.393 246.311 133.283 249.097 132.325 251.642C120.997 248.21 110.022 243.705 99.55 238.186C97.9082 233.668 97.2878 228.843 97.7336 224.057C98.1793 219.271 99.6801 214.644 102.128 210.507C103.127 208.867 104.335 207.365 105.721 206.037C109.871 202 117.346 196.092 122.782 193.653V193.653ZM98.854 201.333C97.9138 200.319 97.1946 199.12 96.7421 197.813C96.2895 196.506 96.1134 195.12 96.2249 193.741C96.3365 192.363 96.7332 191.022 97.39 189.805C98.0468 188.588 98.9494 187.521 100.04 186.671C101.131 185.821 102.387 185.207 103.728 184.868C105.069 184.529 106.465 184.472 107.829 184.701C109.193 184.931 110.495 185.441 111.651 186.199C112.807 186.958 113.794 187.948 114.547 189.108C108.222 192.451 103.694 195.331 98.854 201.333V201.333ZM188.185 176.31C187.757 175.187 187.537 173.996 187.536 172.794C187.536 170.145 188.588 167.605 190.461 165.731C192.335 163.858 194.875 162.806 197.524 162.806C200.173 162.806 202.713 163.858 204.587 165.731C206.46 167.605 207.512 170.145 207.512 172.794C207.521 175.278 206.592 177.674 204.912 179.503C199.465 177.85 193.858 176.78 188.185 176.31V176.31ZM204.427 211.01C203.872 213.29 202.597 215.33 200.792 216.829C198.987 218.328 196.747 219.205 194.403 219.332C192.06 219.458 189.739 218.826 187.783 217.53C185.827 216.234 184.341 214.342 183.544 212.135C184.244 212.145 184.955 212.155 185.644 212.155C191.922 212.146 198.194 211.763 204.427 211.008V211.01Z" fill="#614522"/>
<path d="M67.808 211.606C67.808 201.286 60.156 192.891 50.749 192.891C41.342 192.891 33.69 201.291 33.69 211.606C33.69 221.921 41.343 230.321 50.749 230.321C60.155 230.321 67.808 221.925 67.808 211.606ZM41.69 211.606C41.69 205.698 45.754 200.891 50.749 200.891C55.744 200.891 59.808 205.698 59.808 211.606C59.808 217.514 55.744 222.321 50.749 222.321C45.754 222.321 41.69 217.514 41.69 211.606V211.606Z" fill="#614522"/>
<path d="M77.623 259.722C76.5689 259.839 75.6043 260.37 74.9414 261.198C74.2785 262.026 73.9715 263.083 74.088 264.137C74.3091 265.63 74.1411 267.154 73.6 268.563C73.059 269.971 72.1635 271.216 71 272.177C67.047 275.231 60.892 273.911 57.28 269.238C53.668 264.565 53.945 258.273 57.898 255.219C59.2052 254.277 60.7456 253.711 62.3518 253.583C63.9581 253.454 65.5688 253.768 67.009 254.491C67.4901 254.715 68.0109 254.841 68.5411 254.861C69.0713 254.882 69.6003 254.797 70.0973 254.611C70.5942 254.425 71.0493 254.142 71.4359 253.779C71.8224 253.415 72.1329 252.978 72.349 252.494C72.5652 252.009 72.6828 251.487 72.695 250.956C72.7072 250.426 72.6138 249.898 72.4201 249.404C72.2264 248.91 71.9364 248.46 71.5669 248.079C71.1975 247.698 70.7559 247.395 70.268 247.186C67.5059 245.883 64.4422 245.352 61.4027 245.652C58.3632 245.951 55.4617 247.069 53.007 248.886C45.563 254.637 44.64 265.96 50.95 274.127C52.7174 276.472 54.9968 278.382 57.6145 279.712C60.2322 281.043 63.1191 281.758 66.055 281.803C69.61 281.829 73.0721 280.668 75.892 278.503C78.1456 276.708 79.8961 274.36 80.9729 271.688C82.0498 269.016 82.4164 266.11 82.037 263.254C81.9194 262.201 81.3885 261.237 80.5608 260.575C79.7332 259.912 78.6766 259.606 77.623 259.722V259.722Z" fill="#614522"/>
<path d="M112.793 303.176C115.072 304.506 117.662 305.212 120.301 305.222C121.254 305.223 122.205 305.127 123.139 304.936C124.89 304.612 126.55 303.912 128.005 302.884C129.46 301.856 130.674 300.526 131.564 298.983C132.455 297.441 133 295.724 133.163 293.95C133.326 292.176 133.102 290.389 132.507 288.71C131.338 285.287 128.954 282.412 125.807 280.63V280.63C119.048 276.73 110.625 278.607 107.035 284.823C106.152 286.369 105.612 288.087 105.45 289.86C105.289 291.633 105.51 293.42 106.1 295.1C107.268 298.52 109.649 301.394 112.793 303.176V303.176ZM113.966 288.823C114.421 288.101 115.059 287.514 115.815 287.119C116.572 286.725 117.419 286.539 118.271 286.579C119.516 286.591 120.736 286.928 121.81 287.558V287.558C123.26 288.364 124.365 289.672 124.916 291.237C125.154 291.842 125.252 292.493 125.204 293.142C125.155 293.791 124.961 294.42 124.636 294.983C124.311 295.546 123.863 296.029 123.325 296.395C122.788 296.762 122.175 297.002 121.532 297.099C119.901 297.376 118.225 297.075 116.793 296.248C115.36 295.422 114.262 294.121 113.686 292.57C113.463 291.962 113.372 291.312 113.42 290.666C113.468 290.02 113.655 289.391 113.966 288.823V288.823Z" fill="#614522"/>
<path d="M175.275 309.952C176.437 310.271 177.637 310.434 178.843 310.435C180.794 310.44 182.72 309.995 184.472 309.135C185.902 308.461 187.169 307.485 188.186 306.275C189.203 305.065 189.946 303.649 190.363 302.124C190.78 300.599 190.862 299.002 190.603 297.442C190.344 295.883 189.751 294.398 188.863 293.09C187.089 290.454 184.427 288.542 181.362 287.704C178.297 286.865 175.032 287.155 172.163 288.521C170.733 289.195 169.466 290.171 168.45 291.381C167.433 292.592 166.69 294.008 166.273 295.532C165.856 297.057 165.774 298.654 166.033 300.213C166.291 301.773 166.885 303.258 167.772 304.566C169.529 307.219 172.199 309.136 175.275 309.952ZM173.992 297.646C174.125 297.219 174.347 296.824 174.643 296.488C174.938 296.153 175.301 295.883 175.708 295.696C176.358 295.38 177.073 295.219 177.796 295.224C178.288 295.225 178.777 295.292 179.251 295.424V295.424C180.438 295.725 181.473 296.45 182.162 297.462C182.431 297.822 182.615 298.24 182.699 298.682C182.782 299.124 182.764 299.579 182.645 300.013C182.527 300.447 182.31 300.848 182.013 301.186C181.716 301.524 181.345 301.789 180.93 301.962C179.816 302.46 178.564 302.556 177.387 302.234C176.21 301.912 175.181 301.192 174.476 300.196C174.221 299.829 174.047 299.412 173.963 298.972C173.88 298.533 173.89 298.081 173.992 297.646V297.646Z" fill="#614522"/>
<path d="M231.161 299.134L233.456 299.898C234.463 300.233 235.561 300.154 236.51 299.679C237.458 299.205 238.18 298.372 238.515 297.366C238.849 296.359 238.771 295.26 238.296 294.312C237.821 293.363 236.989 292.642 235.982 292.307L233.682 291.543C232.677 291.213 231.582 291.295 230.637 291.771C229.692 292.247 228.974 293.077 228.64 294.081C228.306 295.085 228.383 296.18 228.855 297.127C229.327 298.074 230.154 298.796 231.157 299.134H231.161Z" fill="#614522"/>
</svg>
