<svg width="512" height="512" viewBox="0 0 512 512" fill="none" xmlns="http://www.w3.org/2000/svg">
<path d="M87.839 73.279H95.129C100.84 76.423 109.432 79.745 120.233 79.745C120.317 79.745 120.401 79.745 120.485 79.745C122.277 79.736 124.089 79.633 125.873 79.438C136.659 78.256 145.375 70.849 148.68 60.977C150.075 56.812 147.226 52.271 142.835 52.157C139.962 52.082 137.293 53.848 136.435 56.581C134.767 61.89 130.168 65.89 124.458 66.516C123.123 66.662 121.765 66.74 120.423 66.746C120.36 66.746 120.298 66.746 120.234 66.746C111.334 66.746 104.432 63.737 100.199 61.204L98.657 60.281H87.839C84.877 60.281 82.467 57.871 82.467 54.909C82.467 54.681 82.612 54.477 82.828 54.403L122.373 38.988H138.743C150.367 38.988 160.33 46.894 162.97 58.215L188.688 168.475C197.249 205.176 225.586 240.484 259.096 260.185C256.908 264.011 255.813 268.43 256.024 273.028C256.561 284.685 265.8 294.39 277.42 295.465C290.104 296.636 300.988 287.726 302.984 275.84L326.127 279.734C329.164 280.245 332.223 280.608 335.295 280.822C351.845 283.08 364.642 297.299 364.642 314.458V320.989C362.033 321.14 359.446 321.811 357.022 323.007C347.239 327.843 343.203 339.737 348.03 349.527C351.382 356.304 358.206 360.331 365.336 360.522C366.989 371.089 371.641 379.114 379.252 384.425C379.374 384.895 379.501 386.011 379.225 387.888L373.285 437.829V487.173H366.933V408.528C366.933 396.319 361.193 384.969 351.184 377.391C340.111 369.004 336.094 348.311 335.025 336.139C334.733 332.817 331.931 330.286 328.595 330.32L328.401 330.322C324.681 330.359 321.769 333.551 322.095 337.257C322.499 341.843 323.324 348.266 324.999 355.153C314.642 358.601 303.87 360.382 292.868 360.438C280.641 360.505 268.282 358.333 256.759 354.138L258.249 337.654C258.569 334.11 256.117 330.772 252.583 330.345C248.927 329.904 245.655 332.571 245.326 336.213L241.43 379.32C241.109 382.865 243.561 386.203 247.095 386.63C250.751 387.071 254.023 384.404 254.352 380.763L255.553 367.473C267.395 371.389 279.932 373.44 292.342 373.44C292.539 373.44 292.738 373.439 292.935 373.438C296.489 373.419 300.02 373.233 303.526 372.898C306.733 383.256 312.045 391.304 319.376 396.854C326.112 401.956 329.976 409.528 329.976 417.629V418.121L340.494 487.172H336.025C332.466 487.172 329.363 489.915 329.255 493.473C329.145 497.154 332.097 500.172 335.753 500.172H386.284V438.598L392.1 389.686C393.5 379.965 389.473 375.647 386.94 373.934C380.684 369.705 377.642 362.297 377.642 351.288V313.505H377.618C377.423 303.792 374.268 294.799 369.016 287.384C383.96 295.974 394.032 312.124 393.936 330.584C393.827 351.827 411.34 368.972 432.583 368.972H435.76C439.319 368.972 442.422 366.23 442.53 362.672C442.639 358.991 439.688 355.972 436.032 355.972H432.584C418.448 355.972 406.921 344.536 406.938 330.401C406.979 295.902 378.925 267.823 344.435 267.823H336.164C334.552 267.635 332.917 267.525 331.26 267.506L312.577 264.299C309.509 251.632 300.497 240.933 287.903 235.716C260.048 224.176 230.495 188.621 223.359 158.026L208.764 97.569C202.825 72.965 187.885 51.943 166.664 38.221C165.527 36.98 164.309 35.822 163.02 34.747V18.602C163.02 15.043 160.277 11.939 156.72 11.833C153.039 11.722 150.02 14.673 150.02 18.33V27.681C147.939 27.039 145.786 26.57 143.576 26.291V18.603C143.576 15.044 140.833 11.94 137.276 11.834C133.595 11.723 130.576 14.674 130.576 18.331V25.988H119.927L78.444 42.163C73.068 44.085 69.466 49.188 69.466 54.908C69.467 65.038 77.708 73.279 87.839 73.279ZM364.643 347.443C362.569 347.082 360.681 345.778 359.687 343.767C358.031 340.407 359.419 336.32 362.779 334.66C363.377 334.365 364.005 334.174 364.643 334.064V347.443V347.443ZM353.933 487.17H353.644L342.972 417.112C342.813 405.101 337.094 393.963 327.224 386.487C322.531 382.934 318.96 377.703 316.555 370.9C320.736 370.012 324.868 368.888 328.945 367.537C332.133 375.355 336.722 382.743 343.337 387.752C350.071 392.852 353.934 400.424 353.934 408.525V487.17H353.933ZM279.659 282.566C273.781 282.566 268.999 277.784 268.999 271.906C268.999 269.863 269.574 267.916 270.628 266.244C277.066 269.229 283.628 271.611 290.216 273.305C289.528 278.522 285.062 282.566 279.659 282.566ZM196.127 100.616L210.71 161.024C218.794 195.682 251.19 234.575 282.927 247.723C289.658 250.512 294.905 255.552 297.908 261.719C254.829 253.098 211.836 210.485 201.347 165.521L177.914 65.05C186.643 75.174 192.91 87.288 196.127 100.616Z" fill="#614522"/>
<path d="M232.252 493.67C232.252 497.26 235.162 500.17 238.752 500.17H282.401L250.128 427.498L251.964 407.184C252.287 403.608 249.651 400.448 246.075 400.125C242.5 399.802 239.339 402.438 239.016 406.013L236.876 429.69L262.403 487.17H258.454L228.906 427.199L218.562 375.191L215.62 360.482L214.416 359.152C211.666 356.116 209.169 352.879 206.943 349.49C208.9 348.539 210.72 347.275 212.308 345.687C220.018 337.962 220.016 325.402 212.299 317.685C207.459 312.855 200.651 311.074 194.352 312.335C194.295 311.558 194.249 310.019 194.215 308.336C194.142 304.815 191.271 301.998 187.751 301.998C184.079 301.998 181.145 305.05 181.289 308.719C181.459 313.033 181.772 317.786 182.224 320.668C183.875 331.349 187.388 341.555 192.658 350.995C194.413 354.149 196.375 357.206 198.513 360.151V434.676L190.353 487.168H183.099L191.505 434.176V381.491L170.302 311.679C167.775 302.583 170.983 299.838 175.834 295.687L176.67 294.969C185.008 287.759 187.864 276.042 183.776 265.816C182.428 262.443 181.331 259.631 180.49 256.719L179.387 252.897C177.089 245.25 174.616 238.402 172.225 231.78C168.406 221.202 164.788 211.175 161.641 197.748C170.837 196.043 177.828 187.977 177.828 178.294C177.828 167.377 168.946 158.494 158.028 158.494C157.648 158.494 157.27 158.514 156.893 158.535C156.807 154.526 156.793 150.554 156.782 146.523C156.74 131.997 156.698 116.977 153.372 96.863C152.933 94.209 152.607 91.94 152.314 89.953C151.749 86.118 147.984 83.624 144.231 84.596C140.992 85.435 138.913 88.583 139.421 91.89C139.72 93.833 140.086 96.206 140.546 98.984C143.701 118.062 143.742 132.549 143.782 146.56C143.828 162.731 143.871 178.005 148.469 198.476C151.907 213.785 156.021 225.178 160 236.195C162.439 242.95 164.743 249.331 166.919 256.57L168.002 260.324C169.007 263.804 170.274 267.054 171.707 270.64C173.739 275.723 172.317 281.548 168.168 285.136L167.383 285.81C162.006 290.412 153.007 298.114 157.804 315.251L178.507 383.421V433.15L169.938 487.167H164.086C160.496 487.167 157.586 490.077 157.586 493.667C157.586 497.257 160.496 500.167 164.086 500.167H201.491L211.515 435.679V406.42L216.491 431.412L243.963 487.17H238.753C235.163 487.17 232.252 490.08 232.252 493.67ZM159.111 185.002C158.361 180.297 157.858 175.843 157.518 171.533C157.688 171.52 157.857 171.496 158.029 171.496C161.779 171.496 164.829 174.546 164.829 178.296C164.829 181.676 162.347 184.48 159.111 185.002ZM203.113 336.5C202.424 337.188 201.607 337.703 200.724 338.039C198.898 333.887 197.441 329.595 196.369 325.185C198.685 324.507 201.302 325.074 203.113 326.882C205.762 329.531 205.76 333.848 203.113 336.5Z" fill="#614522"/>
</svg>
