<svg width="512" height="512" viewBox="0 0 512 512" fill="none" xmlns="http://www.w3.org/2000/svg">
<path d="M78.933 134.65C82.387 134.65 85.187 131.85 85.187 128.396C85.187 124.942 82.387 122.142 78.933 122.142C75.479 122.142 72.679 124.942 72.679 128.396C72.679 131.85 75.479 134.65 78.933 134.65Z" fill="#614522"/>
<path d="M273.992 154.844L273.996 154.781C274.192 151.267 271.538 148.249 268.029 147.977C231.738 145.164 201.621 136.086 178.277 127.571C177.298 127.137 176.309 126.718 175.302 126.333V126.128L172.965 125.434C166.003 114.614 160.802 105.121 156.72 95.749C149.129 78.345 129.09 64.504 109.072 62.84C96.955 61.83 83.856 67.252 73.111 77.71C63.734 86.836 57.117 98.691 54.672 110.613L44.874 117.554C25.229 131.478 17.139 156.811 25.197 179.16C31.82 197.541 49.45 215.411 70.106 224.684C76.201 227.425 82.291 229.216 88.04 230.005C88.725 266.94 95.683 303.179 108.772 337.815L139.152 418.145C141.801 425.15 145.963 431.307 151.28 436.276H142.812C128.281 436.276 115.063 427.142 109.922 413.547L79.542 333.217C71.161 311.043 72.711 298.024 74.857 280.004C75.766 272.367 76.776 263.891 77.102 253.752C77.219 250.09 74.266 247.06 70.602 247.06C67.085 247.06 64.221 249.861 64.106 253.375C63.793 262.977 62.823 271.125 61.949 278.467C59.763 296.817 57.876 312.664 67.382 337.815L97.762 418.145C104.847 436.881 122.787 449.276 142.818 449.276H161.842C164.566 449.276 167.195 448.428 169.399 446.932C174.159 448.481 179.115 449.276 184.202 449.276H203.223C210.617 449.276 216.66 443.309 216.683 435.917C216.708 427.494 213.438 419.569 207.485 413.616C201.559 407.677 193.672 404.406 185.273 404.406H182.919C179.329 404.406 176.419 407.316 176.419 410.906C176.419 414.496 179.329 417.406 182.919 417.406H185.273C190.193 417.406 194.813 419.321 198.288 422.802C201.768 426.282 203.684 430.906 203.684 435.821C203.684 436.071 203.474 436.276 203.224 436.276H184.203C179.047 436.276 174.073 435.175 169.401 432.997C161.013 429.118 154.589 422.212 151.313 413.548L120.933 333.219C107.689 298.175 100.973 261.42 100.973 223.977V186.457C100.973 172.733 106.316 159.837 116.022 150.141C125.713 140.44 138.61 135.097 152.334 135.097C156.979 135.097 161.565 135.714 165.985 136.931L166.759 137.16C168.912 137.977 171.151 138.807 173.433 139.641C189.836 147.071 201.353 162.85 203.368 180.817C203.731 184.05 206.54 186.456 209.793 186.456H209.839C213.692 186.456 216.712 183.107 216.277 179.279C215.06 168.598 211.164 158.536 205.206 149.919C223.291 154.934 243.932 159.148 267.035 160.938C270.646 161.219 273.79 158.463 273.992 154.844ZM66.178 207.848C52.847 199.457 41.842 187.004 37.427 174.753C34.204 165.815 34.416 156.236 37.541 147.633C53.67 149.311 66.178 160.489 66.178 173.995V207.848ZM152.333 122.098C147.414 122.098 142.584 122.664 137.904 123.731C137.286 116.04 132.494 109.588 125.884 106.53C121.477 104.489 116.47 107.862 116.68 112.715C116.784 115.117 118.184 117.313 120.378 118.294C122.982 119.457 124.857 122.022 124.987 125.061C125.039 126.254 124.805 127.411 124.337 128.481C117.925 131.583 112.009 135.765 106.828 140.95C94.668 153.098 87.972 169.26 87.972 186.459V216.848C85.149 216.332 82.195 215.49 79.177 214.358V173.996C79.177 155.469 64.359 139.88 44.421 135.586C46.698 132.818 49.359 130.31 52.39 128.162L66.62 118.081L67.03 115.341C70.234 93.929 90.527 74.348 107.993 75.796C123.279 77.067 139.104 87.88 144.803 100.944C147.77 107.756 151.384 114.787 155.717 122.197C154.592 122.138 153.465 122.098 152.333 122.098Z" fill="#614522"/>
<path d="M456.605 173.547C447.126 164.068 434.857 156.005 421.126 150.231C401.303 141.894 379.019 139.424 356.674 143.092C344.17 145.144 330.453 146.731 314.742 147.944C311.419 148.2 308.08 148.404 304.76 148.554C301.241 148.713 298.496 151.646 298.582 155.167L298.584 155.23C298.672 158.852 301.715 161.705 305.334 161.542C308.797 161.386 312.277 161.173 315.742 160.906C331.827 159.664 345.905 158.033 358.779 155.921C378.705 152.653 398.52 154.828 416.087 162.215C428.281 167.343 439.113 174.441 447.412 182.739C466.424 201.762 476.894 227.042 476.894 253.92C476.894 273.279 474.162 292.527 468.772 311.128L461.647 335.702L447.407 422.556V426.789C447.407 432.03 443.157 436.28 437.916 436.28H389.072C389.364 427.156 395.447 419.594 407.239 417.81C410.452 417.325 412.793 414.499 412.793 411.25C412.793 407.426 409.576 404.4 405.758 404.607C404.866 404.655 404.12 404.711 403.688 404.777C400.081 396.025 396.753 387.027 393.816 377.941C391.648 371.256 389.642 364.371 387.854 357.472C384.972 346.381 382.576 334.92 380.732 323.415C380.026 318.976 379.358 313.799 378.711 307.782C381.662 308.485 384.649 309.05 387.663 309.44C389.19 309.641 390.736 309.802 392.296 309.922C396.022 310.209 399.183 307.203 399.183 303.467C399.183 300.086 396.609 297.219 393.239 296.956C391.93 296.853 390.632 296.719 389.349 296.549C373.072 294.44 357.659 286.885 345.95 275.279L345.285 274.623C332.655 261.819 325.136 245.31 323.748 227.539C323.483 224.15 320.698 221.516 317.299 221.516H317.237C313.486 221.516 310.491 224.699 310.777 228.438C312.403 249.67 321.496 269.373 336.79 284.515L338.701 286.396H338.759C346.495 293.6 355.492 299.348 365.195 303.388C365.875 310.399 366.579 316.415 367.324 321.639C357.865 328.821 347.368 334.968 338.059 338.729C319.53 346.211 298.256 348.45 274.833 345.381C237.479 340.512 204.614 323.473 192.05 316.263C190.948 306.377 191.052 296.401 192.386 286.553C193.437 278.74 195.241 271.026 197.75 263.621L202.774 248.787C203.92 245.404 202.106 241.732 198.723 240.586L198.662 240.565C195.279 239.419 191.607 241.233 190.461 244.616L185.437 259.449C182.661 267.644 180.664 276.179 179.501 284.812C177.87 296.851 177.885 309.07 179.54 321.107C179.896 323.769 180.343 326.459 180.866 329.099L191.924 384.99C192.621 388.511 196.04 390.802 199.563 390.105C203.084 389.409 205.375 385.989 204.678 382.466L194.802 332.552C210.65 340.75 237.479 352.601 267.69 357.464C268.864 362.987 276.504 396.051 294.081 411.357C286.465 417.345 281.574 426.652 281.63 437.084C281.665 443.845 287.237 449.277 293.998 449.277H343.482C355.904 449.277 365.973 439.208 365.973 426.786V423.608L375.876 363.004C377.575 369.389 379.44 375.753 381.448 381.945C384.437 391.189 387.818 400.351 391.482 409.275C382.138 415.071 375.933 425.465 376.064 437.275C376.138 443.963 381.743 449.277 388.431 449.277H437.915C450.337 449.277 460.406 439.208 460.406 426.786V423.607L474.241 338.943L481.258 314.744C486.988 294.967 489.894 274.501 489.894 253.917C489.895 223.57 478.073 195.027 456.605 173.547ZM352.973 422.555V426.788C352.973 432.029 348.723 436.279 343.482 436.279H294.638C294.638 425.925 300.571 419.43 311.444 417.81C314.71 417.324 317.169 414.593 317.169 411.292C317.169 407.436 313.862 404.39 310.023 404.741C309.199 404.817 308.476 404.905 307.96 405.005C294.342 399.286 285.09 373.293 281.446 359.139C285.916 359.509 290.323 359.716 294.647 359.716C312.031 359.716 328.205 356.73 342.929 350.783C350.539 347.708 358.824 343.227 366.801 337.94L352.973 422.555Z" fill="#614522"/>
</svg>
