<svg width="512" height="512" viewBox="0 0 512 512" fill="none" xmlns="http://www.w3.org/2000/svg">
<path d="M78.862 127.195C82.4761 127.195 85.406 124.265 85.406 120.651C85.406 117.037 82.4761 114.107 78.862 114.107C75.2478 114.107 72.318 117.037 72.318 120.651C72.318 124.265 75.2478 127.195 78.862 127.195Z" fill="#614522"/>
<path d="M149.186 142.581C152.541 131.462 154.241 119.412 154.241 106.66V105.267C154.241 101.677 151.331 98.7671 147.741 98.7671C144.151 98.7671 141.241 101.677 141.241 105.267V106.66C141.241 118.139 139.727 128.933 136.739 138.835C135.751 142.103 137.491 145.567 140.688 146.764C144.195 148.075 148.104 146.167 149.186 142.581Z" fill="#614522"/>
<path d="M135.494 158.274L135.373 158.209C132.402 156.592 128.721 157.575 126.873 160.408C126.098 161.597 125.295 162.756 124.463 163.882C122.461 166.591 122.797 170.362 125.32 172.594L125.424 172.685C128.223 175.161 132.572 174.767 134.799 171.767C135.856 170.346 136.871 168.882 137.848 167.379C139.877 164.255 138.766 160.055 135.494 158.274Z" fill="#614522"/>
<path d="M33.3979 156.176C33.8609 157.819 33.7419 159.03 33.5779 160.706C33.3729 162.814 33.1149 165.439 34.1909 168.504C36.2439 174.356 41.6299 177.727 47.8359 179.734C39.6499 201.76 42.8609 226.445 57.2869 251.59C68.9449 271.909 83.7249 285.325 84.3479 285.887L103.084 302.753L94.8379 278.931C93.7289 275.726 93.3849 272.284 93.5119 268.887C97.9199 281.89 105.135 297.23 116.453 307.195L128.226 365.674L121.466 461.086H117.361C113.771 461.086 110.861 463.996 110.861 467.586C110.861 471.176 113.771 474.086 117.361 474.086H169.576L183.025 383.354L202.238 461.088H199.709C196.119 461.088 193.209 463.998 193.209 467.588C193.209 471.178 196.119 474.088 199.709 474.088H253.635L240.039 358.476C242.783 355.809 245.309 352.934 247.572 349.9C250.779 345.604 253.451 340.999 255.576 336.159C267.994 339.753 287.74 344.686 320.847 344.686C328.763 344.686 336.71 344.102 344.552 342.967C348.657 351.565 354.177 358.53 361.019 363.705C370.308 370.738 375.763 381.09 376.105 392.25L350.724 461.088H343.019C339.429 461.088 336.519 463.998 336.519 467.588C336.519 471.178 339.429 474.088 343.019 474.088H396.535V474.086H460.215V421.363L468.037 355.573C469.758 343.709 465.043 338.574 462.074 336.566C453.219 330.582 448.814 320.365 448.625 305.355L458.494 275.22L461.121 261.308C462.228 255.434 462.685 249.528 462.523 243.68H462.531V175.454C462.531 156.507 447.021 141.715 428.074 141.513C418.049 141.407 409.594 134.626 406.949 125.415H435.267C454.38 125.415 472.747 116.211 485.663 100.163C488.073 97.166 488.544 92.959 486.862 89.444C485.274 86.129 482.077 84.068 478.52 84.068H429.022C409.895 84.068 393.721 99.024 393.11 118.141C392.469 138.11 408.549 154.554 428.387 154.513C440.018 154.49 449.53 164.447 449.53 176.077V201.604C447.727 198.797 445.753 196.081 443.592 193.476C427.895 174.539 404.785 163.678 380.188 163.678H351.391C347.801 163.678 344.891 166.588 344.891 170.178C344.891 173.768 347.801 176.678 351.391 176.678H379.172C399.082 176.678 418.32 184.757 431.656 199.542C446.275 215.748 452.365 237.577 448.344 258.896L445.875 271.976L435.619 303.3V304.337C435.619 324.271 442.07 338.738 454.754 347.307C454.768 347.319 455.902 348.747 455.162 353.772L447.26 420.211L447.215 420.594V461.086H423.932V381.143C423.932 365.399 416.563 350.594 404.223 341.545C390.477 331.441 384.715 315.516 382.303 303.928C381.133 298.35 380.811 294.026 380.723 292.399C380.584 289.965 379.244 287.785 377.139 286.565C375.037 285.348 372.483 285.271 370.328 286.348C360.949 290.991 337.224 299.774 314.574 299.774C293.996 299.774 274.338 293.077 256.138 279.86C253.546 277.985 250.081 278.008 247.517 279.916C244.954 281.821 243.937 285.13 244.992 288.164C247.523 295.388 250.959 309.931 245.519 326.179C243.617 331.873 240.802 337.238 237.154 342.124C234.74 345.36 231.961 348.376 228.892 351.089L226.345 353.342L239.015 461.089H215.63L190.294 358.588C205.435 340.499 214.327 318.202 215.786 294.679C216.018 290.937 213.04 287.773 209.292 287.773C205.87 287.773 203.024 290.425 202.813 293.839C201.424 316.351 192.323 337.593 176.833 354.204L173.706 357.559L158.36 461.086H134.5L141.318 364.836L131.246 314.807L132.842 313.922C134.084 313.233 158.346 299.434 170.834 266.923C171.002 270.447 170.676 274.029 169.523 277.357L161.572 300.331L179.927 284.392C181.615 282.927 219.191 249.825 222.443 208.145C222.742 204.311 219.672 201.049 215.826 201.126C212.453 201.194 209.742 203.835 209.474 207.197C207.689 229.496 193.884 249.691 183.406 262.035C181.836 249.739 176.584 239.692 176.252 239.066L166.852 221.371L164.075 241.215C159.057 277.076 137.325 295.206 129.403 300.714C107.153 287.007 100.348 243.193 100.28 242.736L97.3799 223.192L88.1099 240.64C87.7819 241.257 82.6629 251.051 81.0199 263.128C67.1269 245.956 47.7469 214.279 60.6919 182.537H65.8029C85.9179 182.537 102.836 174.712 114.729 159.907C125.512 146.482 131.452 127.718 131.452 107.068V101.006C131.452 94.784 126.737 89.336 120.829 86.392C116.536 84.252 111.489 87.336 111.489 92.131C111.489 94.656 112.946 96.997 115.268 97.988C116.961 98.711 118.452 99.795 118.452 101.006V107.068C118.452 135.885 104.663 169.537 65.8039 169.537H64.0189C48.0029 168.065 46.4719 164.237 46.4579 164.199C46.3349 163.846 46.4189 162.977 46.5189 161.971C46.5909 161.239 46.6649 160.408 46.7029 159.495H59.1799C62.7699 159.495 65.6799 156.585 65.6799 152.995C65.6799 149.405 62.7699 146.495 59.1799 146.495H43.1459C41.6129 144.057 39.6189 141.792 37.1379 139.73V136.106C37.1379 133.418 38.7199 131.283 40.0459 129.965L65.6509 103.635C69.7099 99.461 75.3779 97.068 81.1999 97.068H93.5549C97.1449 97.068 100.055 94.158 100.055 90.568C100.055 86.978 97.1449 84.068 93.5549 84.068H81.2009C80.0509 84.068 78.9039 84.128 77.7649 84.243C78.3279 83.639 78.9249 83.063 79.5909 82.557L106.185 62.38C115.962 54.963 127.892 50.836 140.164 50.912C178.529 51.149 209.668 82.434 209.668 120.854V160.72C198.453 156.338 189.244 147.37 184.846 135.741L172.686 140.34C180.907 162.075 202.043 176.678 225.28 176.678H308.069C311.659 176.678 314.569 173.768 314.569 170.178C314.569 166.588 311.659 163.678 308.069 163.678H225.28C224.405 163.678 223.536 163.643 222.669 163.59V120.854C222.669 75.119 185.46 37.91 139.724 37.91C125.027 37.91 110.482 42.803 98.7729 51.687L71.7339 72.202C65.8729 76.65 62.0409 83.324 61.0499 90.545C59.3679 91.741 57.7819 93.082 56.3309 94.573L30.8449 120.783C26.5189 125.097 24.1379 130.538 24.1379 136.107V146.399L26.9719 148.335C30.4409 150.702 32.6019 153.34 33.3979 156.176ZM428.314 97.069H470.974C461.033 106.893 448.328 112.416 435.267 112.416H407.181C410.084 103.518 418.461 97.069 428.314 97.069ZM410.932 461.086H401.489L410.932 436.297V461.086ZM379.967 333.719C384.02 340.388 389.393 346.78 396.53 352.024C405.548 358.639 410.932 369.524 410.932 381.143V399.782L387.577 461.089H364.58L389.121 394.526V393.367C389.121 377.676 381.738 363.088 368.863 353.34C364.527 350.06 360.867 345.729 357.902 340.456C365.232 338.752 372.535 336.521 379.967 333.719ZM260.719 298.264C277.711 307.901 295.77 312.774 314.574 312.774C334.976 312.774 355.662 306.59 368.621 301.327C368.869 302.936 369.182 304.7 369.576 306.587C370.553 311.273 372.006 316.566 374.166 322.004C365.168 325.321 356.381 327.745 347.488 329.339C338.726 330.896 329.763 331.687 320.847 331.687C289.976 331.687 271.431 327.185 259.669 323.81C261.838 314.322 261.721 305.543 260.719 298.264Z" fill="#614522"/>
</svg>
