<svg width="340" height="340" viewBox="0 0 340 340" fill="none" xmlns="http://www.w3.org/2000/svg">
<path d="M7.69999 137.37C7.93099 137.533 31.075 153.87 55.882 173.387C56.682 174.022 75.582 188.869 104.718 204.236C105.628 207.321 109.063 221.241 99.842 229.217C98.1944 230.606 97.0128 232.467 96.457 234.549C95.9011 236.631 95.9978 238.834 96.7339 240.859C97.47 242.885 98.8101 244.635 100.573 245.875C102.336 247.114 104.437 247.782 106.592 247.789C107.491 247.789 108.386 247.671 109.255 247.439C118.415 244.983 138.676 234.585 134.216 190.939C146.916 190.806 179.208 188.639 185.524 170.396L190.224 170.525C188.762 177.025 186.95 185.125 185.437 191.966C185.002 193.94 184.847 195.966 184.976 197.984L181 211.731C178.919 218.996 179.646 226.777 183.036 233.531C174.413 228.412 166.706 224.189 161.187 221.263C156.687 218.875 151.973 216.673 146.787 214.533C145.931 214.169 144.975 214.109 144.08 214.365C143.186 214.621 142.406 215.177 141.872 215.939C141.536 216.431 141.314 216.992 141.223 217.58C141.131 218.169 141.172 218.771 141.343 219.341C141.514 219.912 141.81 220.437 142.21 220.879C142.61 221.321 143.103 221.667 143.654 221.894C148.635 223.947 153.144 226.052 157.441 228.331C164.841 232.254 176.229 238.539 188.454 246.201C189.236 246.691 190.027 247.168 190.816 247.647C193.74 253.022 196.365 258.554 198.679 264.218C199.247 266.309 203.345 280.418 212.199 286.658L224.114 294.777C225.457 295.7 227.018 296.255 228.642 296.385C230.266 296.516 231.896 296.217 233.369 295.52C236.369 294.12 238.705 290.038 238.776 286.732C238.767 282.446 237.306 278.29 234.631 274.941L228.331 266.717C222.132 258.713 217.362 249.7 214.231 240.073C211.855 233.037 210.718 225.643 210.869 218.218C214.368 210.921 218.857 204.143 224.211 198.075C227.735 194.17 230.611 187.953 232.596 182.715C234.194 184.601 236.002 186.3 237.984 187.777C238.821 188.397 239.867 188.668 240.9 188.531C241.933 188.394 242.872 187.86 243.518 187.043L245.126 185.033C247.425 187.356 250.193 189.162 253.244 190.333C254.846 197.228 257.975 203.675 262.4 209.2C262.465 218.227 262.842 234.326 264.506 250.135C265.097 255.786 266.661 261.293 269.128 266.412C261.936 265.287 254.022 263.681 245.46 261.6C243.388 261.1 241.299 260.549 239.246 259.973C238.239 259.671 237.155 259.761 236.213 260.227C235.271 260.692 234.54 261.498 234.168 262.481C233.994 262.995 233.926 263.539 233.968 264.08C234.011 264.621 234.163 265.147 234.416 265.628C234.668 266.108 235.016 266.532 235.438 266.873C235.859 267.215 236.346 267.467 236.868 267.615C239.08 268.239 241.334 268.83 243.568 269.373C255.607 272.43 267.855 274.595 280.212 275.849C310.638 278.521 328.412 285.079 328.59 285.144C329.581 285.508 330.675 285.466 331.635 285.027C332.595 284.588 333.342 283.787 333.714 282.799C334.086 281.811 334.052 280.716 333.62 279.753C333.188 278.79 332.393 278.036 331.408 277.657C330.808 277.432 319.364 273.192 298.985 270.052C297.424 266.374 295.746 262.738 293.966 259.219C291.867 255.089 290.795 250.514 290.841 245.882L291.196 219.615C291.196 219.568 291.185 219.524 291.184 219.478C291.183 219.432 291.193 219.394 291.19 219.35C291.179 219.114 289.959 195.468 291.19 177.54C291.731 168.748 289.76 159.984 285.507 152.27C289.787 147.826 292.513 142.116 293.277 135.994C293.319 135.584 293.356 135.167 293.39 134.748C298.483 130.497 301.905 124.577 303.046 118.042C303.203 117.047 302.976 116.029 302.413 115.194C301.849 114.359 300.989 113.768 300.007 113.542L299.573 113.442C301.245 111.341 302.419 108.888 303.008 106.268C303.597 103.649 303.585 100.93 302.973 98.315C302.85 97.8025 302.628 97.3193 302.318 96.8931C302.008 96.467 301.617 96.1062 301.167 95.8317C300.717 95.5571 300.218 95.3741 299.697 95.2932C299.176 95.2123 298.645 95.2351 298.133 95.3603C297.621 95.4854 297.139 95.7105 296.714 96.0225C296.29 96.3345 295.931 96.7274 295.658 97.1785C295.386 97.6296 295.206 98.1301 295.127 98.6512C295.049 99.1723 295.074 99.7037 295.202 100.215C296.894 107.137 289.733 112.185 289.443 112.386C288.645 112.928 288.069 113.739 287.821 114.672C287.573 115.604 287.67 116.594 288.094 117.461C288.374 118.008 288.772 118.486 289.259 118.86C289.747 119.234 290.311 119.495 290.912 119.624L294.159 120.388C292.805 123.956 290.443 127.054 287.359 129.303C286.82 129.647 286.372 130.115 286.052 130.668C285.731 131.221 285.548 131.843 285.517 132.481C285.473 133.397 285.405 134.308 285.317 135.188C284.241 145.799 272.581 155.462 260.854 155.462C258.501 155.487 256.16 155.11 253.933 154.35C234.872 147.619 232.8 130.95 232.723 130.261C232.635 129.395 232.266 128.581 231.674 127.943C231.081 127.305 230.296 126.878 229.439 126.727C225.231 126.003 221.393 123.875 218.549 120.691C217.872 119.917 216.931 119.424 215.909 119.308C214.888 119.192 213.86 119.461 213.027 120.064C212.592 120.398 212.23 120.818 211.964 121.298C211.698 121.777 211.534 122.307 211.481 122.853C211.428 123.399 211.488 123.95 211.658 124.472C211.827 124.994 212.102 125.475 212.465 125.886C215.873 129.761 220.327 132.57 225.293 133.975C226.793 140.299 232.26 155.181 251.269 161.893C254.352 162.956 257.593 163.487 260.854 163.462C267.431 163.371 273.833 161.334 279.254 157.609C282.257 163.609 283.621 170.296 283.209 176.993C281.983 194.877 283.085 217.453 283.197 219.628L282.844 245.773C282.782 251.696 284.15 257.547 286.83 262.829C287.817 264.781 288.773 266.772 289.694 268.786C286.894 268.453 283.967 268.151 280.914 267.88C280.314 267.826 279.674 267.754 279.055 267.692C275.394 262.189 273.13 255.876 272.46 249.3C271.227 237.59 270.718 225.7 270.514 216.759C271.506 217.454 272.546 218.123 273.649 218.752C274.461 219.231 275.415 219.413 276.347 219.268C277.279 219.124 278.131 218.66 278.76 217.957C279.148 217.509 279.431 216.981 279.59 216.41C279.748 215.839 279.778 215.24 279.677 214.657C279.576 214.073 279.347 213.519 279.005 213.035C278.664 212.551 278.22 212.148 277.704 211.857C263.18 203.64 260.722 186.972 260.704 186.816C260.604 186.062 260.291 185.352 259.802 184.769C259.313 184.186 258.668 183.755 257.942 183.526C251.124 181.372 249.437 177.616 249.237 177.109C249.054 176.38 248.662 175.72 248.109 175.211C247.556 174.702 246.867 174.365 246.125 174.243C245.406 174.128 244.669 174.209 243.993 174.48C243.317 174.75 242.727 175.199 242.286 175.778L239.852 178.82C236.693 175.604 235.99 172.992 235.843 172.205C236.238 169.264 236.149 166.278 235.58 163.365C235.489 162.841 235.294 162.341 235.008 161.893C234.721 161.445 234.348 161.059 233.91 160.757C233.473 160.455 232.979 160.244 232.459 160.135C231.938 160.026 231.401 160.022 230.879 160.123C230.357 160.224 229.861 160.428 229.419 160.723C228.976 161.018 228.597 161.398 228.304 161.842C228.01 162.285 227.808 162.782 227.709 163.305C227.61 163.827 227.616 164.364 227.727 164.884C228.154 167.054 228.205 169.281 227.878 171.468C226.687 175.896 222.841 187.654 218.271 192.716C212.201 199.563 207.155 207.254 203.292 215.549V215.559C203.057 216.1 202.922 216.68 202.892 217.269C202.613 225.839 203.873 234.39 206.612 242.515C210.024 253.017 215.225 262.851 221.985 271.583L228.247 279.755C229.99 281.84 230.883 284.506 230.747 287.22C230.727 287.447 230.647 287.665 230.514 287.85C230.381 288.035 230.201 288.181 229.992 288.273C229.776 288.379 229.535 288.426 229.295 288.407C229.055 288.388 228.824 288.305 228.627 288.166L216.764 280.084C211.033 276.047 207.318 265.64 206.373 261.984L206.248 261.584C202.894 252.784 195.948 240.043 190.722 230.921C189.264 228.373 188.334 225.558 187.986 222.643C187.638 219.728 187.879 216.773 188.696 213.953L189.804 210.119C191.066 211.724 192.467 213.213 193.992 214.57C194.397 214.929 194.872 215.201 195.385 215.371C195.899 215.541 196.442 215.605 196.982 215.559C197.521 215.513 198.046 215.358 198.523 215.104C199.001 214.849 199.422 214.5 199.761 214.078C200.393 213.239 200.682 212.191 200.569 211.146C200.456 210.102 199.95 209.14 199.153 208.455C197.725 207.165 196.439 205.725 195.318 204.161C194.01 202.329 193.21 200.184 193.001 197.943V197.909C192.867 196.5 192.955 195.079 193.261 193.697C196.35 179.727 200.689 160.537 200.732 160.344C200.776 160.15 200.805 159.953 200.819 159.754C201.218 153.142 200.166 146.522 197.736 140.36C197.502 139.738 197.424 139.069 197.508 138.41C197.592 137.75 197.836 137.122 198.219 136.579C198.746 135.83 199.501 135.271 200.371 134.987C201.251 134.69 202.001 134.097 202.492 133.309C202.983 132.521 203.186 131.587 203.065 130.666C202.92 129.711 202.451 128.836 201.736 128.186C200.238 126.724 198.851 125.153 197.585 123.486C197.494 123.372 197.435 123.236 197.412 123.092C197.39 122.948 197.405 122.801 197.457 122.665C197.504 122.52 197.589 122.389 197.702 122.286C197.815 122.184 197.954 122.113 198.103 122.08L200.428 121.514C201.465 121.284 202.373 120.661 202.961 119.777C203.482 118.969 203.695 118 203.562 117.047C203.428 116.095 202.957 115.222 202.234 114.588C200.407 113.006 198.776 111.211 197.375 109.242C197.26 109.084 197.192 108.896 197.181 108.701C197.17 108.506 197.216 108.312 197.313 108.142C197.407 107.948 197.554 107.785 197.738 107.672C197.922 107.559 198.134 107.501 198.349 107.505H202.249C203.299 107.526 204.318 107.145 205.097 106.44C205.795 105.788 206.238 104.909 206.345 103.96C206.453 103.012 206.219 102.056 205.685 101.264C204.277 99.1846 203.141 96.9328 202.307 94.564C201.919 93.5299 201.934 92.3876 202.349 91.364C202.609 90.7294 203.025 90.1708 203.558 89.7401C204.091 89.3093 204.725 89.0203 205.4 88.9C208.698 88.3278 212.038 88.0358 215.385 88.027C215.493 88.036 215.602 88.047 215.711 88.047C215.787 88.047 215.862 88.036 215.937 88.032C218.923 88.0448 221.905 88.268 224.86 88.7C225.411 88.7809 225.973 88.7459 226.51 88.5969C227.047 88.448 227.547 88.1886 227.978 87.8353C228.409 87.482 228.761 87.0425 229.012 86.5452C229.263 86.0478 229.407 85.5034 229.436 84.947C229.469 83.9377 229.126 82.952 228.475 82.1803C227.824 81.4085 226.909 80.9054 225.909 80.768C222.866 80.329 219.799 80.0862 216.725 80.041C205.465 73.953 183.436 64.641 156.437 66.376C149.669 66.7353 142.974 67.9613 136.518 70.024C127.739 70.813 123.476 67.386 123.218 67.17C122.827 66.8194 122.37 66.5492 121.875 66.3749C121.379 66.2007 120.854 66.1257 120.33 66.1544C119.271 66.2122 118.278 66.6885 117.569 67.4785C116.861 68.2684 116.496 69.3073 116.554 70.3666C116.612 71.4259 117.088 72.4189 117.878 73.127C118.499 73.691 123.733 78.152 133.921 78.152C135.181 78.1492 136.439 78.0825 137.692 77.952C137.705 77.952 137.716 77.946 137.729 77.945C137.838 77.932 137.945 77.9 138.054 77.878C138.214 77.8524 138.373 77.8166 138.529 77.771H138.552C144.509 75.8297 150.695 74.6828 156.952 74.36C174.804 73.207 190.531 77.471 201.445 81.778C199.737 82.494 198.216 83.5913 196.998 84.9857C195.78 86.3801 194.896 88.0347 194.416 89.823C193.76 92.4175 193.928 95.1518 194.895 97.647C195.168 98.393 195.465 99.131 195.786 99.861C194.591 100.206 193.479 100.791 192.518 101.581C191.557 102.37 190.767 103.348 190.196 104.453C189.426 105.924 189.077 107.58 189.186 109.237C189.296 110.894 189.859 112.488 190.816 113.846C191.363 114.624 191.948 115.387 192.571 116.136C191.159 117.323 190.15 118.918 189.682 120.702C189.347 122.075 189.333 123.506 189.64 124.886C189.948 126.265 190.568 127.555 191.454 128.656C191.942 129.282 192.431 129.885 192.921 130.464C191.988 131.417 191.218 132.517 190.642 133.72C189.934 135.187 189.532 136.783 189.463 138.411C189.393 140.038 189.656 141.663 190.236 143.185C192.187 148.18 193.075 153.527 192.844 158.885C192.718 159.442 192.424 160.747 192.011 162.579L186.663 162.432C186.638 133.718 149.272 116.032 147.603 115.259C146.643 114.826 145.551 114.789 144.564 115.156C143.577 115.524 142.775 116.265 142.331 117.22C141.887 118.175 141.838 119.267 142.194 120.258C142.55 121.249 143.283 122.06 144.233 122.514C144.609 122.69 181.733 140.295 178.451 165.747C176.161 181.052 142.588 183.326 129.833 182.909C129.251 182.889 128.673 182.997 128.137 183.224C127.601 183.451 127.121 183.792 126.731 184.223C126.341 184.655 126.049 185.166 125.877 185.722C125.704 186.278 125.655 186.864 125.733 187.441C131.279 228.641 114.599 237.723 107.171 239.716C106.71 239.83 106.226 239.809 105.777 239.654C105.327 239.499 104.933 239.218 104.64 238.844C104.232 238.31 104.048 237.639 104.127 236.972C104.206 236.305 104.542 235.695 105.064 235.272C119.164 223.079 112.775 203.053 112.096 201.072C109.874 193.561 108.411 185.845 107.731 178.042C107.583 176.014 108.12 173.995 109.257 172.309C110.394 170.624 112.065 169.369 114.001 168.747C121.046 166.557 128.214 164.782 135.467 163.432C136.546 163.332 142.503 162.732 146.359 162.143C147.371 162.005 148.296 161.494 148.952 160.711C149.608 159.928 149.949 158.928 149.908 157.907C149.873 157.352 149.722 156.81 149.466 156.316C149.21 155.823 148.854 155.388 148.42 155.039C147.986 154.691 147.484 154.437 146.947 154.294C146.409 154.151 145.848 154.121 145.298 154.207C142.763 154.607 139.028 155.017 136.691 155.262C135.563 155.383 134.424 155.336 133.31 155.125C127.68 154.045 124.044 151.493 120.271 148.593C119.557 148.128 118.722 147.881 117.87 147.883C117.018 147.884 116.184 148.133 115.471 148.6C108.606 153.01 97.54 154.463 81.553 151.444C81.047 151.344 80.635 151.271 80.329 151.218C75.1187 150.318 69.7643 150.775 64.782 152.545C59.2376 154.428 53.5702 155.927 47.82 157.031C43.788 153.953 39.914 151.031 36.304 148.338C42.8703 146.177 49.2325 143.44 55.316 140.157C57.7026 138.906 60.3864 138.332 63.076 138.499C63.627 138.527 64.1777 138.44 64.6939 138.246C65.21 138.051 65.6805 137.752 66.0758 137.367C66.4712 136.982 66.783 136.52 66.9917 136.009C67.2004 135.499 67.3016 134.951 67.289 134.399C67.2386 133.376 66.8069 132.408 66.079 131.688C65.3511 130.967 64.3797 130.544 63.356 130.504C59.2549 130.285 55.1713 131.184 51.541 133.104C44.1542 137.115 36.3032 140.205 28.164 142.304C18.7 135.344 12.423 130.915 12.3 130.83C11.4317 130.261 10.3761 130.051 9.35636 130.246C8.33658 130.441 7.4325 131.025 6.8352 131.874C6.2379 132.723 5.99419 133.771 6.15556 134.797C6.31694 135.823 6.87077 136.745 7.69999 137.37V137.37ZM67.5 160.07C71.1864 158.765 75.147 158.431 79 159.1C79.272 159.146 79.638 159.215 80.085 159.3C86.474 160.5 105.099 164.023 117.83 156.621C118.817 157.271 119.82 157.891 120.848 158.461C117.848 159.227 114.623 160.128 111.476 161.151C107.837 162.323 104.7 164.692 102.576 167.871C100.452 171.051 99.4655 174.855 99.776 178.666C100.188 183.713 100.931 188.728 102 193.678C87.6502 185.832 73.8908 176.951 60.831 167.106C59.2423 165.855 57.662 164.618 56.09 163.397C59.9463 162.491 63.7519 161.382 67.491 160.074L67.5 160.07Z" fill="#614522"/>
<path d="M131.32 274.924C136.026 277.402 140.558 280.197 144.885 283.291C161.946 295.327 184.458 304.953 200.339 310.909C210.224 314.615 220.475 317.258 230.92 318.793C268.288 324.274 289.65 333.739 289.995 333.893C290.961 334.331 292.062 334.366 293.055 333.992C294.048 333.619 294.851 332.865 295.289 331.899C295.727 330.933 295.762 329.832 295.388 328.839C295.014 327.846 294.261 327.043 293.295 326.605C292.395 326.197 270.795 316.555 232.081 310.878C222.2 309.426 212.501 306.925 203.149 303.419C187.707 297.628 165.864 288.3 149.497 276.754C144.875 273.451 140.034 270.468 135.007 267.823C127.842 264.09 120.397 260.923 112.738 258.351C99.8961 254.125 87.8049 247.892 76.914 239.882L12.382 192.038C11.5297 191.406 10.4614 191.139 9.412 191.295C8.36264 191.451 7.4182 192.017 6.78646 192.87C6.15471 193.722 5.88741 194.79 6.04334 195.84C6.19928 196.889 6.76568 197.833 7.61796 198.465L72.148 246.309C83.7158 254.821 96.5589 261.447 110.2 265.94C117.463 268.379 124.525 271.383 131.32 274.924V274.924Z" fill="#614522"/>
<path d="M289.271 106.654C289.781 106.53 290.262 106.306 290.686 105.996C291.11 105.686 291.469 105.295 291.742 104.846C292.015 104.398 292.197 103.9 292.277 103.38C292.358 102.861 292.335 102.331 292.211 101.821C292.145 101.557 285.444 75.57 254.128 79.062C252.128 79.195 236.071 80.862 225.15 100.244L218.907 101.066C217.976 101.188 217.118 101.634 216.482 102.326C215.847 103.017 215.475 103.91 215.432 104.848C215.238 109.084 217.218 117.807 226.105 120.504C226.609 120.662 227.139 120.718 227.665 120.67C228.191 120.621 228.702 120.469 229.169 120.222C229.636 119.975 230.05 119.638 230.385 119.231C230.721 118.823 230.973 118.353 231.127 117.848C231.28 117.343 231.332 116.812 231.279 116.286C231.226 115.761 231.07 115.251 230.819 114.786C230.568 114.321 230.228 113.911 229.817 113.579C229.407 113.246 228.935 112.998 228.428 112.849C227.381 112.542 226.425 111.982 225.645 111.218C224.865 110.454 224.285 109.511 223.956 108.47L228.221 107.909C228.861 107.825 229.471 107.587 229.999 107.216C230.527 106.845 230.958 106.352 231.254 105.778C240.408 88.042 254.083 87.078 254.63 87.046C254.73 87.046 254.824 87.034 254.921 87.024C279.148 84.271 284.226 102.89 284.442 103.733C284.697 104.759 285.349 105.643 286.254 106.19C287.159 106.738 288.243 106.904 289.271 106.654V106.654Z" fill="#614522"/>
<path d="M284.283 114.463C280.532 96.293 267.062 93.517 260.337 94.597L253.167 95.362C246.367 95.732 233.785 101.287 233.958 119.919C233.972 120.419 234.437 132.269 244.836 137.119C245.565 137.529 246.203 138.082 246.712 138.746C247.221 139.409 247.591 140.168 247.799 140.978L248.26 142.468C248.673 143.833 249.364 145.098 250.288 146.183C251.213 147.269 252.353 148.152 253.635 148.776C255.728 149.834 258.044 150.376 260.389 150.356C260.988 150.354 261.586 150.321 262.182 150.256L262.946 150.175C265.844 149.896 268.601 148.794 270.893 147C272.071 146.13 273.052 145.022 273.774 143.748C274.496 142.474 274.942 141.062 275.083 139.605L275.219 138.051C275.268 137.497 275.375 136.95 275.538 136.418L275.546 136.4V136.381C275.836 135.313 276.448 134.361 277.298 133.653C286.434 126.712 284.386 115.032 284.298 114.539C284.294 114.515 284.289 114.489 284.283 114.463ZM267.114 138.91C267.072 139.385 266.944 139.918 265.898 140.755C264.797 141.597 263.479 142.108 262.098 142.229L261.334 142.31C259.956 142.495 258.553 142.272 257.3 141.67C256.962 141.535 256.66 141.324 256.417 141.053C256.174 140.783 255.997 140.459 255.9 140.109L255.618 139.198C259.382 138.204 263.294 137.899 267.166 138.298L267.114 138.91ZM272.463 127.285C271.286 128.192 270.281 129.302 269.495 130.562C262.295 129.311 255.18 130.917 251.404 132.062C250.463 131.172 249.389 130.435 248.22 129.879C242.489 127.203 241.989 120.339 241.955 119.701C241.847 104.536 252.481 103.427 253.655 103.352C253.741 103.352 253.826 103.342 253.912 103.332L261.281 102.545C261.367 102.536 261.452 102.524 261.536 102.51C262.015 102.429 273.236 100.705 276.431 116.026C276.505 116.456 277.5 123.461 272.463 127.285V127.285Z" fill="#614522"/>
<path d="M120.072 85.613C115.226 87.6918 110.244 89.4404 105.162 90.847C105.093 90.865 105.025 90.873 104.957 90.886C104.928 90.892 104.903 90.905 104.874 90.91C103.865 91.09 79.945 95.241 60.388 89.265C46.269 84.952 36.352 73.038 35.121 58.915C34.5899 53.5855 35.5438 48.213 37.877 43.392C39.6447 39.8847 42.1326 36.79 45.1781 34.31C48.2237 31.83 51.7583 30.0206 55.551 29C61.8287 27.1844 68.5142 27.3538 74.692 29.485C77.3074 30.3867 79.6164 32.0059 81.3552 34.1576C83.0939 36.3092 84.1924 38.9067 84.525 41.653C84.722 43.468 84.5464 45.3041 84.0091 47.0489C83.4717 48.7936 82.5839 50.4103 81.4 51.8C79.6518 53.8813 77.4117 55.4934 74.883 56.49C74.734 56.55 74.593 56.607 74.49 56.658C73.9166 56.9346 73.4437 57.3828 73.1369 57.9406C72.83 58.4983 72.7046 59.1377 72.778 59.77C72.8917 60.3864 73.201 60.9497 73.6599 61.3766C74.1188 61.8035 74.703 62.0712 75.326 62.14C75.477 62.174 75.639 62.207 75.804 62.24C76.1878 62.314 76.5822 62.314 76.966 62.24C80.159 61.631 88.066 59.483 92.51 52.723C95.82 47.69 96.575 40.948 94.754 32.683C94.4 31.375 88.26 10.426 59.037 14.216C58.065 14.339 35.688 17.392 24.953 38.952C19.6858 49.7428 18.3915 62.0451 21.2978 73.6957C24.204 85.3464 31.1247 95.5994 40.843 102.652C52.173 110.771 66.816 114.884 84.38 114.884C84.764 114.884 85.147 114.884 85.533 114.878H85.575C86.6358 114.873 87.6554 115.289 88.4093 116.035C89.1632 116.782 89.5897 117.797 89.595 118.858C89.6003 119.919 89.1839 120.938 88.4376 121.692C87.6912 122.446 86.6758 122.873 85.615 122.878C85.202 122.878 84.788 122.884 84.379 122.884C65.108 122.884 48.9 118.268 36.179 109.154C13.02 92.556 5.11398 60.843 17.791 35.385C30.491 9.88505 56.924 6.41305 58.043 6.27805C94.764 1.51905 102.443 30.478 102.521 30.778C102.529 30.813 102.538 30.847 102.546 30.878C104.873 41.367 103.746 50.195 99.19 57.118C93.064 66.43 82.656 69.3 78.465 70.1C77.0847 70.3665 75.6662 70.3665 74.286 70.1C74.044 70.054 73.81 70.005 73.586 69.954C71.3672 69.5395 69.3332 68.4423 67.7683 66.8157C66.2033 65.189 65.1855 63.1142 64.857 60.881C64.5549 58.6298 64.9537 56.3401 65.9992 54.3236C67.0447 52.307 68.686 50.6615 70.7 49.611C71.0841 49.4094 71.479 49.2291 71.883 49.071C73.1739 48.5749 74.3211 47.7652 75.221 46.715C75.7308 46.1496 76.1149 45.4824 76.3478 44.7575C76.5807 44.0327 76.6571 43.2666 76.572 42.51C76.4046 41.2629 75.8902 40.0879 75.0876 39.1188C74.2849 38.1498 73.2261 37.4257 72.032 37.029C67.4059 35.4257 62.3936 35.3127 57.7 36.706C54.9933 37.4235 52.4683 38.7037 50.2899 40.4632C48.1115 42.2227 46.3288 44.4218 45.058 46.917C43.3734 50.4304 42.693 54.3412 43.092 58.217C44.037 69.073 51.744 78.255 62.725 81.611C79.686 86.793 101.371 83.38 103.32 83.055C104.192 82.83 105.145 82.555 106.171 82.233C105.655 81.8458 105.171 81.4163 104.726 80.949C104.004 80.1712 103.622 79.1385 103.661 78.0783C103.701 77.018 104.161 76.0171 104.938 75.2955C105.716 74.574 106.749 74.1911 107.809 74.2309C108.869 74.2708 109.87 74.7302 110.592 75.508C110.773 75.689 113.305 78.09 118.399 77.915C118.399 77.915 122.063 77.401 123.042 80.615C124.021 83.829 120.072 85.613 120.072 85.613Z" fill="#614522"/>
<path d="M92.459 129.968C92.459 131.029 92.8804 132.046 93.6306 132.796C94.3807 133.547 95.3981 133.968 96.459 133.968H102.4C103.461 133.968 104.478 133.547 105.228 132.796C105.979 132.046 106.4 131.029 106.4 129.968C106.397 129.363 106.255 128.767 105.985 128.225C105.96 128.13 105.95 128.034 105.917 127.94C105.553 126.893 105.179 125.911 104.817 124.961C103.668 121.945 102.76 119.561 102.753 116.385C102.736 112.408 103.394 108.457 104.7 104.7C105.01 103.685 104.903 102.589 104.405 101.653C103.906 100.716 103.056 100.016 102.041 99.7065C101.027 99.3969 99.9306 99.503 98.9941 100.002C98.0577 100.5 97.3576 101.35 97.048 102.365C95.5113 106.884 94.736 111.627 94.754 116.4C94.7998 119.677 95.4437 122.919 96.654 125.965H96.454C95.3935 125.966 94.3769 126.389 93.6277 127.139C92.8786 127.89 92.4582 128.908 92.459 129.968Z" fill="#614522"/>
<path d="M99.97 145.851H108.254C109.315 145.851 110.332 145.43 111.082 144.679C111.833 143.929 112.254 142.912 112.254 141.851C112.254 140.79 111.833 139.773 111.082 139.023C110.332 138.272 109.315 137.851 108.254 137.851H99.97C98.9091 137.851 97.8917 138.272 97.1415 139.023C96.3914 139.773 95.97 140.79 95.97 141.851C95.97 142.912 96.3914 143.929 97.1415 144.679C97.8917 145.43 98.9091 145.851 99.97 145.851Z" fill="#614522"/>
<path d="M252.599 119.869C254.808 119.869 256.599 118.078 256.599 115.869C256.599 113.66 254.808 111.869 252.599 111.869C250.39 111.869 248.599 113.66 248.599 115.869C248.599 118.078 250.39 119.869 252.599 119.869Z" fill="#614522"/>
<path d="M266.399 118.487C268.608 118.487 270.399 116.696 270.399 114.487C270.399 112.278 268.608 110.487 266.399 110.487C264.19 110.487 262.399 112.278 262.399 114.487C262.399 116.696 264.19 118.487 266.399 118.487Z" fill="#614522"/>
<path d="M260.309 127.458C262.518 127.458 264.309 125.667 264.309 123.458C264.309 121.249 262.518 119.458 260.309 119.458C258.1 119.458 256.309 121.249 256.309 123.458C256.309 125.667 258.1 127.458 260.309 127.458Z" fill="#614522"/>
</svg>
