<svg width="340" height="340" viewBox="0 0 340 340" fill="none" xmlns="http://www.w3.org/2000/svg">
<path d="M82.832 221.76C89.9465 228.519 96.6777 235.671 102.994 243.182C104.46 245.005 106.316 246.476 108.426 247.485C110.537 248.494 112.847 249.016 115.186 249.012H135.816C138.023 249.009 140.14 248.131 141.7 246.57C143.261 245.01 144.139 242.893 144.142 240.686C144.142 238.036 143.312 235.452 141.77 233.297C140.228 231.142 138.05 229.524 135.542 228.668L126.616 225.623C124.877 225.037 123.274 224.107 121.902 222.889C120.178 221.379 118.658 219.65 117.383 217.745C115.878 215.404 115.144 212.651 115.283 209.871C115.648 200.5 117.481 191.245 120.714 182.442C120.753 182.355 120.781 182.265 120.814 182.175C123.904 173.777 128.664 166.093 134.808 159.587C138.127 161.484 141.329 163.578 144.398 165.857C143.085 167.698 141.647 169.85 140.173 172.313L130.64 175.222C130.144 175.365 129.681 175.606 129.279 175.929C128.877 176.253 128.543 176.654 128.297 177.107C128.051 177.561 127.898 178.06 127.846 178.573C127.794 179.087 127.845 179.606 127.996 180.1C128.147 180.594 128.394 181.052 128.724 181.45C129.054 181.847 129.459 182.175 129.917 182.414C130.374 182.653 130.875 182.799 131.389 182.843C131.903 182.887 132.422 182.828 132.913 182.67L135.1 182C132.671 187.322 130.79 192.878 129.489 198.581C129.38 199.067 129.289 199.556 129.21 200.048C128.424 199.361 127.686 198.622 127 197.836C126.371 197.121 125.497 196.667 124.551 196.564C123.604 196.461 122.653 196.716 121.885 197.28L121.797 197.345C121.389 197.644 121.044 198.022 120.784 198.456C120.523 198.89 120.351 199.371 120.278 199.872C120.205 200.373 120.232 200.884 120.359 201.374C120.485 201.864 120.707 202.325 121.013 202.728C123.205 205.689 126.155 208.003 129.553 209.428C129.559 209.455 129.563 209.483 129.569 209.51C130.17 212.067 131.036 214.554 132.154 216.93C133.624 220.008 135.726 222.743 138.322 224.955C141.078 227.327 146.835 230.403 152.989 232.794C154.28 233.307 155.386 234.196 156.167 235.345C156.947 236.494 157.364 237.851 157.365 239.24C157.364 239.766 157.155 240.271 156.783 240.643C156.411 241.015 155.906 241.224 155.38 241.225H152.74C151.707 241.225 150.717 241.635 149.987 242.366C149.256 243.096 148.846 244.086 148.846 245.119C148.846 246.152 149.256 247.142 149.987 247.872C150.717 248.603 151.707 249.013 152.74 249.013H155.375C157.966 249.01 160.45 247.979 162.282 246.147C164.114 244.315 165.144 241.831 165.147 239.24C165.14 236.283 164.245 233.396 162.58 230.953C160.914 228.51 158.554 226.622 155.804 225.535C149.972 223.269 145.147 220.559 143.397 219.052C141.625 217.547 140.189 215.686 139.183 213.59C138.3 211.705 137.615 209.733 137.14 207.706C137.018 207.175 136.922 206.638 136.854 206.098V206.098C136.847 206.003 136.823 205.914 136.809 205.822C136.591 203.978 136.686 202.111 137.091 200.299C138.954 192.267 142.022 184.564 146.191 177.45L146.212 177.415C147.778 174.715 149.322 172.37 150.712 170.415C160.947 176.756 172.655 180.327 184.687 180.777C185.895 190.488 190.076 218.215 200.587 241.107C201.691 243.501 203.457 245.529 205.676 246.953C207.895 248.376 210.475 249.135 213.111 249.14H219.422C221.1 249.14 222.748 248.701 224.204 247.867C225.659 247.033 226.872 245.833 227.721 244.386C228.569 242.939 229.025 241.296 229.043 239.618C229.061 237.941 228.64 236.288 227.822 234.823C226.385 232.239 224.449 229.965 222.127 228.135C221.561 227.693 221.094 227.137 220.755 226.504C220.416 225.871 220.213 225.175 220.158 224.459C219.732 218.451 219.32 203.465 224.688 194.087C225.574 192.564 226.779 191.251 228.22 190.236C229.661 189.222 231.303 188.531 233.036 188.21C232.064 191.6 231.282 195.043 230.696 198.521H229.629C229.112 198.513 228.599 198.607 228.12 198.799C227.64 198.991 227.204 199.277 226.835 199.639C226.467 200.001 226.175 200.433 225.975 200.91C225.775 201.386 225.673 201.898 225.673 202.414C225.673 202.931 225.775 203.443 225.975 203.919C226.175 204.396 226.467 204.828 226.835 205.19C227.204 205.552 227.64 205.838 228.12 206.03C228.599 206.222 229.112 206.316 229.629 206.308H229.666C229.196 211.248 229.076 216.215 229.307 221.172C229.396 223.112 229.929 225.005 230.864 226.707C231.799 228.409 233.111 229.874 234.7 230.99C236.723 232.363 238.484 234.086 239.9 236.079C240.24 236.567 240.438 237.14 240.47 237.734C240.503 238.328 240.369 238.92 240.084 239.442C239.804 239.992 239.377 240.454 238.85 240.777C238.323 241.099 237.718 241.269 237.1 241.268C236.067 241.271 235.078 241.683 234.349 242.415C233.621 243.147 233.213 244.139 233.215 245.171C233.218 246.204 233.631 247.194 234.363 247.922C235.095 248.651 236.086 249.059 237.119 249.056H237.138C239.17 249.047 241.161 248.484 242.896 247.427C244.631 246.369 246.044 244.858 246.983 243.056C247.92 241.279 248.353 239.279 248.237 237.273C248.12 235.267 247.458 233.331 246.322 231.674C244.376 228.89 241.936 226.486 239.122 224.583C238.516 224.15 238.017 223.583 237.663 222.927C237.31 222.272 237.111 221.544 237.082 220.799C236.818 215.044 237.06 209.277 237.806 203.564C237.928 203.193 237.993 202.806 237.998 202.416C237.998 202.361 237.984 202.316 237.982 202.258C238.662 197.392 239.761 192.593 241.265 187.915C242.714 187.9 244.253 187.875 245.904 187.828C246.926 187.784 247.889 187.339 248.586 186.591C249.283 185.842 249.658 184.849 249.628 183.827C249.599 182.804 249.169 181.834 248.431 181.126C247.692 180.419 246.705 180.03 245.682 180.044C242.982 180.121 240.53 180.138 238.363 180.153C237.121 180.162 235.986 180.17 234.975 180.188C231.51 180.25 228.119 181.206 225.132 182.964C222.145 184.721 219.662 187.221 217.925 190.22C211.725 201.049 211.795 216.666 212.386 225.01C212.519 226.806 213.024 228.555 213.87 230.146C214.716 231.736 215.883 233.133 217.298 234.248C218.815 235.444 220.08 236.929 221.018 238.617C221.178 238.897 221.261 239.214 221.257 239.536C221.254 239.858 221.165 240.174 220.999 240.45C220.841 240.729 220.611 240.959 220.333 241.118C220.055 241.276 219.739 241.356 219.419 241.35H213.108C211.961 241.347 210.838 241.016 209.873 240.396C208.907 239.776 208.14 238.892 207.66 237.85C203.019 227.301 199.433 216.318 196.955 205.062C198.209 205.617 199.366 206.37 200.38 207.293C201.149 207.983 202.161 208.338 203.192 208.282C204.224 208.226 205.19 207.762 205.88 206.993C206.57 206.224 206.925 205.212 206.869 204.181C206.813 203.149 206.349 202.183 205.58 201.493C202.692 198.804 199.045 197.069 195.136 196.526C193.011 185.654 192.149 177.648 192.044 176.626L191.498 159.665C196.068 157.488 200.107 154.338 203.331 150.436C203.974 149.628 204.269 148.597 204.152 147.571C204.035 146.545 203.515 145.608 202.706 144.965C201.898 144.323 200.868 144.028 199.842 144.145C198.816 144.262 197.879 144.782 197.236 145.59C194.687 148.79 191.194 151.299 185.909 153.709C185.674 153.816 185.451 153.947 185.242 154.099C185.15 154.171 185.062 154.249 184.978 154.33C184.874 154.415 184.773 154.504 184.678 154.599C184.59 154.694 184.52 154.799 184.442 154.905C184.363 154.999 184.289 155.097 184.22 155.199C184.161 155.294 184.12 155.399 184.071 155.499C184.002 155.622 183.941 155.749 183.886 155.879C183.844 155.991 183.822 156.11 183.786 156.226C183.75 156.342 183.707 156.474 183.686 156.605C183.643 156.859 183.625 157.117 183.633 157.375V157.375L184.133 172.938C172.678 172.389 160.106 168.092 151.815 161.685C147.625 158.391 143.199 155.41 138.572 152.765C139.386 148.743 139.725 144.638 139.581 140.537C148.576 148.527 159.232 154.421 170.781 157.794C171.273 157.948 171.79 158.002 172.303 157.954C172.815 157.907 173.314 157.758 173.769 157.516C174.223 157.274 174.626 156.945 174.952 156.547C175.279 156.148 175.524 155.689 175.672 155.196C175.82 154.703 175.868 154.185 175.815 153.673C175.761 153.16 175.607 152.664 175.36 152.212C175.113 151.76 174.779 151.361 174.378 151.039C173.976 150.717 173.514 150.477 173.019 150.335C148.613 143.013 137.663 127.007 137.561 126.855C137.063 126.103 136.32 125.547 135.459 125.282C134.597 125.017 133.67 125.06 132.836 125.402C132.002 125.744 131.312 126.365 130.885 127.159C130.458 127.953 130.319 128.87 130.493 129.755C132.233 138.617 132.241 146.167 130.557 152.818C123.547 159.796 118.038 168.133 114.367 177.318C111.796 177.675 109.19 177.709 106.61 177.418C106.101 177.353 105.585 177.389 105.09 177.525C104.595 177.66 104.132 177.892 103.727 178.207C103.322 178.522 102.984 178.914 102.731 179.36C102.478 179.806 102.315 180.298 102.253 180.807C102.19 181.316 102.229 181.832 102.367 182.326C102.505 182.82 102.739 183.282 103.055 183.686C103.372 184.089 103.765 184.426 104.213 184.677C104.66 184.928 105.153 185.088 105.662 185.148C107.122 185.325 108.591 185.413 110.062 185.411C110.546 185.411 111.036 185.394 111.525 185.376C109.182 193.246 107.83 201.378 107.498 209.583C107.295 213.98 108.474 218.33 110.87 222.022C112.52 224.496 114.487 226.744 116.72 228.707C118.867 230.616 121.376 232.074 124.098 232.994L133.023 236.039C133.993 236.37 134.835 236.996 135.432 237.829C136.028 238.663 136.349 239.662 136.349 240.687C136.349 240.83 136.292 240.966 136.191 241.067C136.09 241.168 135.954 241.225 135.811 241.225H115.181C114.004 241.226 112.841 240.963 111.779 240.455C110.717 239.947 109.782 239.206 109.045 238.288C102.526 230.526 95.5768 223.136 88.23 216.152C87.3299 215.283 86.6391 214.221 86.2102 213.046C85.7812 211.871 85.6252 210.613 85.754 209.369C86.5797 200.823 86.9486 192.24 86.859 183.655C86.8484 180.916 86.3141 178.204 85.285 175.665C81.54 166.448 74.661 154.741 69.549 146.542C67.1574 142.684 66.0734 138.157 66.458 133.634L67.295 123.964C67.3476 123.45 67.2975 122.931 67.1475 122.437C66.9976 121.943 66.7508 121.483 66.4215 121.085C66.0923 120.687 65.6872 120.359 65.2298 120.119C64.7724 119.879 64.2718 119.732 63.7573 119.688C63.2427 119.643 62.7244 119.702 62.2326 119.859C61.7408 120.017 61.2852 120.271 60.8925 120.606C60.4997 120.942 60.1776 121.352 59.9449 121.813C59.7122 122.274 59.5735 122.777 59.537 123.292L58.7 132.962C58.1728 139.165 59.6601 145.372 62.941 150.662C67 157.16 74.352 169.433 78.075 178.6C78.7314 180.224 79.0708 181.958 79.075 183.709C79.1638 191.995 78.8103 200.279 78.016 208.527C77.7629 210.954 78.065 213.406 78.8993 215.698C79.7337 217.991 81.0785 220.064 82.832 221.76V221.76Z" fill="#614522"/>
<path d="M333.767 144.773C333.721 143.997 333.445 143.253 332.972 142.636C332.5 142.019 331.854 141.557 331.117 141.31C330.771 141.193 323.25 138.767 312.71 141.829C302.333 123.42 288.803 106.977 272.736 93.25C268.719 89.8889 264.33 87 259.654 84.64C259.584 84.606 259.518 84.564 259.446 84.535C250.638 80.0965 240.972 77.6197 231.115 77.275C217.507 76.83 197.552 75.161 179.722 69.727C159.829 64.4841 139.239 62.3854 118.698 63.507C88.3527 65.4936 60.0106 79.3512 39.807 102.08L39.776 102.114C28.9756 114.448 20.3656 128.539 14.319 143.778L14.304 143.816C14.072 144.402 13.84 144.988 13.615 145.583C12.1512 149.447 10.8845 153.383 9.82001 157.375C9.80301 157.428 9.79201 157.482 9.77701 157.536C4.61501 177.028 5.02901 196.086 10.941 214.036C11.003 214.321 11.097 214.597 11.221 214.861C14.6543 224.831 19.572 234.226 25.808 242.729C26.508 243.722 43.35 267.156 78.185 276.337C81.6831 277.238 85.3917 276.793 88.5776 275.091C91.7635 273.388 94.1947 270.553 95.3905 267.144C96.5864 263.736 96.4598 260.003 95.0357 256.683C93.6117 253.364 90.9939 250.699 87.7 249.217C78.28 244.981 64.745 237.5 53.78 225.884C38.618 209.828 33.142 186.344 39.488 164.599C42.588 153.968 47.259 144.904 53.362 137.658C54.0127 136.866 54.3252 135.85 54.2317 134.83C54.1382 133.81 53.6463 132.867 52.8626 132.207C52.0789 131.547 51.0666 131.222 50.0452 131.303C49.0237 131.385 48.0755 131.865 47.406 132.641C46.121 134.166 44.914 135.782 43.746 137.441L40.016 135.171C39.1341 134.644 38.0799 134.488 37.083 134.735C36.086 134.982 35.2271 135.613 34.6932 136.49C34.1593 137.368 33.9937 138.421 34.2325 139.42C34.4712 140.419 35.095 141.283 35.968 141.824L39.612 144.041C36.399 149.862 33.8497 156.025 32.012 162.415C29.1301 172.219 28.372 182.524 29.7884 192.644C31.2049 202.763 34.7632 212.465 40.226 221.1C40.763 222.55 43.516 230.442 42.326 236.587C42.2263 237.09 42.2269 237.608 42.3279 238.111C42.4288 238.613 42.6281 239.091 42.9142 239.517C43.2004 239.943 43.5678 240.307 43.9953 240.591C44.4229 240.874 44.9022 241.07 45.4057 241.167C45.9092 241.265 46.427 241.262 46.9293 241.159C47.4317 241.055 47.9087 240.854 48.333 240.566C48.7573 240.278 49.1205 239.909 49.4017 239.48C49.683 239.051 49.8768 238.571 49.972 238.067C50.2501 236.579 50.3917 235.069 50.395 233.555C58.7303 241.581 68.2339 248.297 78.582 253.475C78.1263 254.987 77.3895 256.4 76.41 257.639C75.6436 258.324 75.1793 259.285 75.1184 260.311C75.0575 261.338 75.405 262.346 76.085 263.117C76.765 263.888 77.7224 264.359 78.7483 264.427C79.7741 264.495 80.7852 264.155 81.561 263.48C83.3744 261.626 84.7539 259.393 85.6 256.941C86.7965 257.787 87.6797 259.006 88.1122 260.406C88.5448 261.806 88.5026 263.31 87.992 264.684C87.4335 266.22 86.3228 267.493 84.8765 268.254C83.4302 269.015 81.7522 269.21 80.17 268.8C72.0395 266.66 64.2312 263.445 56.952 259.238C57.995 258.8 59.0084 258.294 59.986 257.725C60.4379 257.473 60.8349 257.133 61.1538 256.725C61.4728 256.317 61.7073 255.85 61.8436 255.351C61.9799 254.852 62.0154 254.33 61.9478 253.817C61.8803 253.304 61.7111 252.81 61.4502 252.363C61.1893 251.916 60.8419 251.525 60.4284 251.214C60.0148 250.903 59.5434 250.677 59.0416 250.55C58.5398 250.423 58.0178 250.398 57.506 250.475C56.9942 250.552 56.503 250.731 56.061 251C53.6156 252.479 50.8232 253.286 47.966 253.34C37.503 245.589 32.248 238.34 32.143 238.195C27.5502 231.92 23.6951 225.137 20.654 217.98C22.4303 218.746 23.9886 219.94 25.1891 221.457C26.3896 222.973 27.1947 224.764 27.532 226.669C27.7206 227.678 28.3 228.572 29.1441 229.156C29.9883 229.74 31.029 229.967 32.0398 229.788C33.0506 229.609 33.9497 229.038 34.5415 228.199C35.1333 227.36 35.37 226.321 35.2 225.309C34.4473 221.054 32.3006 217.17 29.0979 214.27C25.8952 211.369 21.8185 209.616 17.51 209.287C13.1379 194.598 12.6736 179.023 16.163 164.1C17.508 165.45 18.725 167.912 18.432 172.417C18.3989 172.927 18.4666 173.439 18.6313 173.923C18.796 174.407 19.0545 174.854 19.3919 175.239C19.7294 175.623 20.1392 175.937 20.5981 176.163C21.0569 176.389 21.5557 176.522 22.066 176.555C22.152 176.561 22.237 176.564 22.322 176.564C23.3101 176.562 24.2604 176.184 24.9809 175.508C25.7015 174.832 26.1386 173.908 26.204 172.922C26.832 163.246 22.465 158.283 18.262 156.109C18.912 153.961 19.6333 151.803 20.426 149.635L26.033 150.627C26.2582 150.667 26.4864 150.687 26.715 150.687C27.6889 150.686 28.6272 150.321 29.3449 149.663C30.0626 149.004 30.5076 148.101 30.592 147.131C30.6765 146.161 30.3944 145.194 29.8013 144.422C29.2082 143.649 28.3471 143.127 27.388 142.958L23.395 142.252C27.6841 132.616 33.0259 123.483 39.323 115.021C39.7516 117.389 40.4035 119.711 41.27 121.956C41.6442 122.919 42.3855 123.693 43.3308 124.109C44.2761 124.525 45.3479 124.549 46.3105 124.175C47.2731 123.8 48.0476 123.059 48.4637 122.114C48.8797 121.168 48.9032 120.097 48.529 119.134C46.984 115.05 46.2819 110.696 46.465 106.334C65.2472 85.6766 91.3105 73.1108 119.17 71.281C122.633 71.071 126.041 70.981 129.37 70.989C132.8 77.289 137.698 81.349 143.659 82.789C144.854 83.075 146.079 83.2183 147.308 83.216C148.919 83.2079 150.522 82.9853 152.074 82.554C152.57 82.4223 153.036 82.1936 153.443 81.8813C153.851 81.569 154.193 81.1792 154.449 80.7342C154.705 80.2893 154.871 79.7981 154.937 79.2888C155.003 78.7795 154.967 78.2623 154.832 77.7669C154.697 77.2714 154.465 76.8076 154.15 76.402C153.835 75.9965 153.443 75.6572 152.997 75.4038C152.55 75.1503 152.058 74.9877 151.548 74.9253C151.039 74.8629 150.522 74.9019 150.027 75.04C148.552 75.4875 146.987 75.5488 145.482 75.218C142.978 74.5826 140.725 73.203 139.021 71.261C152.014 71.9238 164.905 73.9114 177.494 77.193C178.983 77.646 180.488 78.066 181.994 78.471C182.499 81.2812 183.608 83.9482 185.245 86.2871C186.883 88.6261 189.009 90.5812 191.477 92.017C192.371 92.5342 193.434 92.675 194.432 92.4084C195.43 92.1418 196.281 91.4897 196.798 90.5955C197.316 89.7013 197.456 88.6383 197.19 87.6404C196.923 86.6424 196.271 85.7912 195.377 85.274C193.456 84.1729 191.894 82.541 190.877 80.574C202.339 82.8657 213.958 84.2921 225.634 84.841C227.434 90.957 231.716 95.341 238.176 97.6C240.143 98.2986 242.215 98.6584 244.303 98.664C249.116 98.664 253.93 96.709 258.533 92.871C261.787 94.6999 264.865 96.8256 267.728 99.221C270.692 101.707 273.488 104.268 276.128 106.852C277.053 108.052 282.974 116.269 283.554 129.971C283.597 130.974 284.025 131.921 284.749 132.616C285.473 133.311 286.437 133.699 287.441 133.7C287.496 133.7 287.552 133.7 287.608 133.7C288.64 133.656 289.612 133.205 290.311 132.444C291.01 131.684 291.378 130.677 291.334 129.645C291.242 127.445 291.022 125.252 290.677 123.077C294.935 128.458 298.887 134.075 302.514 139.9C300.97 139.55 299.314 139.234 297.59 139C297.08 138.923 296.559 138.949 296.059 139.075C295.558 139.202 295.088 139.426 294.675 139.736C294.262 140.046 293.915 140.435 293.654 140.88C293.392 141.325 293.222 141.818 293.153 142.329C293.084 142.841 293.117 143.361 293.251 143.86C293.385 144.358 293.616 144.825 293.932 145.233C294.248 145.642 294.642 145.983 295.09 146.238C295.539 146.492 296.035 146.655 296.547 146.717C300.912 147.35 305.187 148.499 309.281 150.14C309.331 150.162 309.381 150.17 309.435 150.189C309.549 150.233 309.664 150.267 309.782 150.3C309.905 150.336 310.031 150.365 310.157 150.388C310.275 150.408 310.394 150.42 310.515 150.43C310.636 150.44 310.77 150.446 310.898 150.444C311.026 150.442 311.141 150.43 311.263 150.416C311.391 150.402 311.519 150.382 311.645 150.355C311.765 150.329 311.882 150.295 312 150.255C312.07 150.233 312.142 150.223 312.211 150.197C316.563 148.445 321.27 147.756 325.942 148.187C325.501 152.718 323.468 156.946 320.204 160.12C319.66 160.586 319.256 161.194 319.035 161.875C318.814 162.556 318.785 163.285 318.952 163.982C320.455 170.097 320.883 176.427 320.215 182.688C320.056 184.024 319.626 185.313 318.951 186.477C318.276 187.641 317.37 188.654 316.289 189.455C309.436 194.65 303.262 202.317 300.189 206.425C299.757 207 299.197 207.467 298.554 207.789C297.911 208.111 297.202 208.279 296.483 208.281H286.943C286.227 208.281 285.521 208.115 284.88 207.796C284.239 207.477 283.681 207.013 283.25 206.442C280.18 202.333 274.008 194.663 267.15 189.465C266.064 188.66 265.154 187.642 264.476 186.472C263.798 185.303 263.367 184.007 263.208 182.665C262.544 176.41 262.972 170.087 264.474 163.978C264.641 163.281 264.612 162.552 264.391 161.871C264.17 161.19 263.766 160.582 263.222 160.116C259.955 156.945 257.921 152.716 257.483 148.184C262.155 147.753 266.862 148.442 271.214 150.193C272.16 150.554 273.209 150.533 274.14 150.136C274.153 150.13 275.422 149.591 277.44 148.927C277.926 148.768 278.376 148.514 278.764 148.181C279.152 147.848 279.47 147.442 279.701 146.986C279.932 146.529 280.071 146.032 280.11 145.522C280.148 145.012 280.086 144.5 279.927 144.014C279.768 143.528 279.514 143.078 279.181 142.69C278.848 142.302 278.442 141.984 277.986 141.753C277.529 141.522 277.032 141.383 276.522 141.344C276.012 141.306 275.5 141.368 275.014 141.527C274.026 141.85 273.189 142.151 272.543 142.393C261.05 138.463 252.668 141.179 252.304 141.302C251.567 141.549 250.921 142.01 250.448 142.627C249.976 143.245 249.699 143.989 249.654 144.765C249.257 151.906 251.69 158.916 256.426 164.276C255.095 170.611 254.772 177.117 255.467 183.553C255.756 185.937 256.522 188.238 257.72 190.319C258.918 192.4 260.523 194.218 262.439 195.665C264.308 197.104 266.081 198.664 267.747 200.335C265.384 201.065 263.061 201.917 260.787 202.889C260.312 203.089 259.882 203.38 259.521 203.747C259.16 204.114 258.875 204.549 258.683 205.026C258.491 205.504 258.396 206.015 258.402 206.53C258.409 207.045 258.518 207.553 258.722 208.025C258.927 208.498 259.223 208.925 259.594 209.282C259.964 209.64 260.402 209.92 260.882 210.107C261.361 210.294 261.873 210.384 262.388 210.372C262.903 210.36 263.41 210.245 263.88 210.036C267.033 208.711 270.278 207.616 273.589 206.76C274.955 208.409 276.117 209.913 277.002 211.098C278.16 212.638 279.66 213.888 281.384 214.749C283.107 215.611 285.007 216.061 286.934 216.063H296.474C296.566 216.063 296.657 216.049 296.749 216.047C296.765 216.047 296.779 216.054 296.794 216.055C303.517 217 309.772 220.038 314.671 224.739C315.423 225.447 316.426 225.827 317.458 225.795C318.49 225.764 319.468 225.324 320.176 224.572C320.883 223.819 321.263 222.817 321.232 221.785C321.2 220.752 320.76 219.775 320.008 219.067C316.164 215.441 311.662 212.583 306.745 210.648C309.662 206.785 315.111 200.105 320.98 195.657C322.892 194.214 324.493 192.401 325.688 190.325C326.884 188.25 327.649 185.955 327.938 183.577C328.637 177.133 328.314 170.62 326.982 164.277C331.72 158.92 334.157 151.913 333.767 144.773V144.773ZM240.751 90.245C238.057 89.4267 235.749 87.6637 234.251 85.28C239.803 85.7832 245.258 87.0526 250.462 89.052C249.034 89.9603 247.421 90.5387 245.741 90.7451C244.061 90.9515 242.357 90.7806 240.751 90.245Z" fill="#614522"/>
<path d="M83.18 110.13C81.9962 111.079 81.0402 112.281 80.3826 113.648C79.7249 115.016 79.3823 116.513 79.38 118.03C79.2886 120.356 79.8391 122.663 80.971 124.697C82.029 126.44 84.359 128.432 89.479 128.432C89.869 128.432 90.2754 128.42 90.698 128.396C93.07 128.254 95.3174 127.286 97.051 125.661L100.798 122.161C102.733 120.352 103.891 117.862 104.028 115.216C104.165 112.57 103.27 109.974 101.531 107.975C99.7928 105.976 97.3464 104.729 94.7071 104.497C92.0678 104.265 89.4415 105.066 87.381 106.732L83.18 110.13ZM88.08 116.184L92.28 112.784C92.7725 112.391 93.3977 112.204 94.0251 112.261C94.6525 112.318 95.2335 112.616 95.6466 113.091C96.0598 113.567 96.2731 114.184 96.2421 114.813C96.211 115.442 95.938 116.035 95.48 116.468L91.733 119.968C91.3308 120.351 90.8078 120.581 90.254 120.619C89.3337 120.714 88.4038 120.644 87.508 120.412C87.2454 119.649 87.129 118.844 87.165 118.038C87.1682 117.681 87.2516 117.329 87.4089 117.008C87.5662 116.687 87.7935 116.405 88.074 116.184H88.08Z" fill="#614522"/>
<path d="M164.748 87.312C162.756 87.1414 160.754 87.1191 158.759 87.245C156.028 87.4023 153.362 88.14 150.938 89.409C146.489 91.788 144.079 95.483 144.138 99.829C144.101 101.694 144.623 103.527 145.635 105.094C146.648 106.66 148.106 107.888 149.822 108.62C151.289 109.281 152.88 109.62 154.489 109.612C155.987 109.61 157.473 109.334 158.872 108.798L167.403 105.541C169.405 104.775 171.087 103.35 172.172 101.5C173.257 99.6511 173.68 97.4875 173.371 95.3658C173.063 93.2441 172.041 91.2906 170.475 89.8268C168.908 88.363 166.89 87.4761 164.752 87.312H164.748ZM164.621 98.265L156.089 101.523C155.119 101.929 154.028 101.934 153.055 101.537C152.752 101.439 152.484 101.255 152.283 101.009C152.082 100.762 151.957 100.462 151.922 100.146C151.938 100.028 151.938 99.9082 151.922 99.79C151.906 99.23 151.864 97.745 154.609 96.277C156.062 95.5289 157.658 95.0984 159.29 95.014C160.897 94.9143 162.508 94.9344 164.112 95.074C164.534 95.1006 164.931 95.2865 165.221 95.594C165.512 95.9016 165.675 96.308 165.677 96.731C165.676 97.0633 165.574 97.3874 165.386 97.661C165.197 97.9347 164.931 98.1452 164.621 98.265V98.265Z" fill="#614522"/>
<path d="M162.644 116.758L160.497 117.758C158.25 118.794 156.501 120.671 155.626 122.985C154.751 125.299 154.821 127.864 155.82 130.127C156.558 131.719 157.642 133.127 158.994 134.245C160.346 135.364 161.932 136.166 163.634 136.592C164.441 136.826 165.276 136.944 166.116 136.943C167.747 136.939 169.35 136.514 170.77 135.711L176.97 132.216C178.821 131.172 180.266 129.535 181.072 127.568C181.877 125.601 181.996 123.42 181.409 121.378C180.822 119.336 179.563 117.551 177.836 116.312C176.109 115.073 174.015 114.453 171.892 114.552C168.706 114.686 165.575 115.433 162.671 116.752L162.644 116.758ZM163.773 124.818L165.908 123.829C167.901 122.927 170.049 122.418 172.234 122.329C172.626 122.311 173.013 122.432 173.326 122.669C173.639 122.907 173.858 123.246 173.947 123.629C174.025 123.976 173.988 124.338 173.843 124.663C173.698 124.987 173.452 125.256 173.142 125.429L166.942 128.929C166.606 129.137 166.202 129.205 165.816 129.118C165.194 129.004 164.608 128.746 164.104 128.364C163.6 127.981 163.193 127.486 162.916 126.918C162.76 126.525 162.762 126.087 162.922 125.696C163.082 125.304 163.387 124.99 163.773 124.818V124.818Z" fill="#614522"/>
<path d="M196.288 99.847C194.004 100.001 191.83 100.889 190.091 102.379C188.353 103.869 187.142 105.881 186.64 108.115C186.085 110.294 186.248 112.593 187.105 114.671C187.961 116.75 189.466 118.496 191.395 119.651L191.655 119.806C194.86 121.515 198.46 122.345 202.09 122.211C202.757 122.211 203.441 122.19 204.142 122.149C206.442 122.004 208.636 121.125 210.401 119.643C212.166 118.161 213.411 116.153 213.952 113.912L213.967 113.849C214.554 111.412 214.262 108.847 213.143 106.604C212.023 104.362 210.148 102.586 207.848 101.591C204.192 100.084 200.226 99.4851 196.288 99.847V99.847ZM204.794 108.755C205.399 109.037 205.888 109.52 206.179 110.121C206.47 110.722 206.544 111.405 206.389 112.055L206.378 112.097C206.233 112.715 205.893 113.271 205.409 113.681C204.924 114.091 204.321 114.335 203.687 114.376C200.245 114.576 197.358 114.115 195.569 113.076L195.462 113.013C194.941 112.711 194.535 112.244 194.309 111.686C194.083 111.128 194.05 110.51 194.214 109.931C194.344 109.306 194.676 108.741 195.158 108.323C195.64 107.905 196.246 107.656 196.883 107.615C197.427 107.573 197.96 107.552 198.483 107.553C200.646 107.522 202.794 107.931 204.794 108.755V108.755Z" fill="#614522"/>
<path d="M214.907 137.348C212.874 138.444 211.265 140.188 210.334 142.302C209.404 144.416 209.206 146.781 209.771 149.02C210.336 151.26 211.633 153.247 213.455 154.667C215.277 156.086 217.521 156.857 219.831 156.857H224.873C226.764 156.86 228.621 156.345 230.24 155.367C231.859 154.389 233.179 152.986 234.056 151.31L235.136 149.257C236.285 147.047 236.605 144.498 236.038 142.073C235.472 139.647 234.055 137.504 232.046 136.032L231.059 135.316C229.475 134.174 227.603 133.5 225.655 133.37C223.708 133.24 221.762 133.659 220.041 134.58L214.907 137.348ZM224.962 141.127C225.508 141.126 226.041 141.298 226.484 141.618L227.472 142.335C227.974 142.702 228.328 143.237 228.469 143.842C228.61 144.448 228.53 145.084 228.243 145.635L227.163 147.688C226.944 148.106 226.615 148.456 226.211 148.7C225.808 148.943 225.345 149.072 224.873 149.071H219.831C219.252 149.075 218.689 148.884 218.232 148.53C217.774 148.176 217.448 147.679 217.307 147.118C217.165 146.557 217.215 145.965 217.45 145.436C217.684 144.907 218.089 144.472 218.6 144.2L223.734 141.432C224.112 141.23 224.534 141.125 224.962 141.127V141.127Z" fill="#614522"/>
<path d="M120.674 90.815L114.274 93.771C113.751 94.0113 113.184 94.1368 112.608 94.139C112.033 94.1413 111.464 94.0202 110.94 93.784C110.471 93.5562 109.962 93.4248 109.441 93.3976C108.921 93.3705 108.4 93.448 107.91 93.6257C107.42 93.8034 106.971 94.0777 106.589 94.4322C106.207 94.7867 105.9 95.2143 105.686 95.6896C105.473 96.165 105.357 96.6783 105.345 97.1994C105.333 97.7204 105.426 98.2385 105.619 98.7229C105.811 99.2072 106.098 99.6481 106.464 100.019C106.83 100.391 107.266 100.685 107.748 100.884C109.288 101.577 110.959 101.932 112.648 101.924C114.337 101.916 116.005 101.546 117.538 100.838L123.938 97.882C125.932 96.9615 127.556 95.3939 128.546 93.4338C129.536 91.4738 129.835 89.2365 129.393 87.0854C128.951 84.9343 127.794 82.9959 126.112 81.585C124.429 80.1742 122.318 79.3738 120.123 79.314L113.074 79.121C112.561 79.1046 112.05 79.1896 111.571 79.3711C111.091 79.5527 110.652 79.8272 110.279 80.179C109.905 80.5307 109.605 80.9527 109.396 81.4208C109.186 81.8889 109.071 82.3938 109.057 82.9065C109.043 83.4192 109.13 83.9297 109.314 84.4085C109.498 84.8874 109.774 85.3252 110.128 85.6968C110.481 86.0685 110.905 86.3666 111.374 86.5741C111.843 86.7816 112.348 86.8944 112.861 86.906L119.91 87.099C120.349 87.1105 120.772 87.2703 121.109 87.5524C121.445 87.8345 121.677 88.2223 121.765 88.6527C121.854 89.083 121.794 89.5307 121.596 89.9228C121.397 90.3149 121.072 90.6283 120.673 90.812L120.674 90.815Z" fill="#614522"/>
<path d="M269.332 224.746C271.148 223.036 273.147 221.53 275.292 220.256C275.735 219.997 276.123 219.653 276.432 219.243C276.742 218.834 276.967 218.368 277.096 217.871C277.225 217.374 277.254 216.856 277.182 216.348C277.11 215.84 276.938 215.351 276.677 214.909C276.415 214.468 276.068 214.082 275.657 213.775C275.246 213.468 274.778 213.245 274.281 213.119C273.783 212.993 273.266 212.967 272.758 213.042C272.25 213.117 271.762 213.292 271.322 213.556C268.686 215.122 266.231 216.973 264 219.075C263.62 219.424 263.314 219.844 263.098 220.312C262.882 220.78 262.761 221.286 262.742 221.801C262.723 222.316 262.807 222.83 262.988 223.312C263.17 223.795 263.445 224.237 263.798 224.612C264.151 224.987 264.575 225.289 265.046 225.499C265.517 225.709 266.024 225.824 266.539 225.836C267.055 225.849 267.567 225.759 268.048 225.572C268.528 225.384 268.966 225.104 269.337 224.746H269.332Z" fill="#614522"/>
<path d="M323.216 202.9C322.361 202.531 321.5 202.183 320.648 201.86C319.687 201.512 318.627 201.556 317.698 201.983C316.769 202.409 316.045 203.184 315.683 204.139C315.32 205.095 315.347 206.155 315.759 207.091C316.171 208.026 316.934 208.762 317.884 209.14C318.627 209.422 319.378 209.725 320.122 210.047C320.592 210.252 321.097 210.362 321.609 210.371C322.121 210.381 322.63 210.289 323.107 210.101C323.584 209.913 324.018 209.633 324.387 209.277C324.755 208.92 325.049 208.495 325.253 208.025C325.456 207.555 325.565 207.049 325.573 206.537C325.581 206.025 325.487 205.516 325.298 205.04C325.109 204.564 324.827 204.13 324.47 203.762C324.113 203.395 323.687 203.102 323.216 202.9V202.9Z" fill="#614522"/>
<path d="M283.827 181.214L281.442 179.814C281.001 179.555 280.514 179.385 280.007 179.314C279.501 179.243 278.986 179.273 278.491 179.401C277.996 179.53 277.531 179.754 277.123 180.062C276.715 180.37 276.372 180.756 276.112 181.196C275.853 181.637 275.684 182.125 275.613 182.631C275.542 183.137 275.572 183.653 275.7 184.148C275.828 184.642 276.053 185.107 276.361 185.515C276.669 185.923 277.054 186.267 277.495 186.526L279.88 187.926C280.321 188.193 280.811 188.37 281.321 188.446C281.83 188.522 282.35 188.496 282.85 188.37C283.35 188.244 283.82 188.019 284.232 187.71C284.645 187.401 284.992 187.013 285.253 186.568C285.514 186.124 285.685 185.632 285.754 185.121C285.824 184.61 285.792 184.091 285.659 183.593C285.526 183.094 285.296 182.628 284.982 182.219C284.667 181.811 284.275 181.469 283.827 181.213V181.214Z" fill="#614522"/>
<path d="M284.458 156.581C284.078 156.239 283.634 155.975 283.152 155.804C282.67 155.633 282.159 155.559 281.648 155.586C281.137 155.613 280.637 155.74 280.175 155.961C279.714 156.181 279.3 156.49 278.958 156.87C277.365 158.875 276.22 161.197 275.599 163.68C274.978 166.164 274.896 168.752 275.358 171.27C275.509 172.178 275.978 173.003 276.68 173.599C277.382 174.194 278.272 174.522 279.193 174.523C279.409 174.523 279.626 174.505 279.839 174.469C280.343 174.385 280.826 174.202 281.26 173.932C281.694 173.661 282.07 173.307 282.367 172.891C282.664 172.475 282.877 172.005 282.992 171.507C283.107 171.008 283.123 170.492 283.039 169.988C282.764 168.615 282.777 167.2 283.076 165.832C283.376 164.464 283.955 163.173 284.778 162.04C285.453 161.271 285.798 160.267 285.738 159.245C285.678 158.223 285.218 157.266 284.458 156.581V156.581Z" fill="#614522"/>
<path d="M301.992 179.812L299.607 181.212C299.159 181.468 298.767 181.81 298.452 182.218C298.138 182.627 297.908 183.094 297.775 183.592C297.642 184.09 297.61 184.609 297.68 185.12C297.749 185.631 297.92 186.123 298.181 186.567C298.442 187.012 298.789 187.4 299.202 187.709C299.614 188.018 300.084 188.243 300.584 188.369C301.084 188.495 301.604 188.521 302.113 188.445C302.623 188.369 303.113 188.192 303.554 187.925L305.939 186.525C306.829 186.002 307.475 185.146 307.734 184.147C307.993 183.147 307.845 182.086 307.322 181.196C306.798 180.305 305.943 179.66 304.943 179.4C303.944 179.141 302.882 179.29 301.992 179.813V179.812Z" fill="#614522"/>
<path d="M304.474 156.87C303.78 156.116 302.816 155.666 301.792 155.618C300.768 155.57 299.766 155.928 299.005 156.614C298.243 157.3 297.782 158.258 297.722 159.281C297.663 160.305 298.009 161.31 298.686 162.08C299.491 163.214 300.058 164.5 300.351 165.86C300.645 167.22 300.658 168.626 300.392 169.991C300.308 170.495 300.324 171.011 300.439 171.51C300.554 172.008 300.766 172.478 301.063 172.895C301.361 173.311 301.737 173.664 302.171 173.935C302.605 174.206 303.088 174.388 303.592 174.472C303.805 174.508 304.021 174.526 304.237 174.526C305.157 174.524 306.047 174.196 306.749 173.6C307.451 173.005 307.92 172.181 308.073 171.273C308.535 168.754 308.453 166.166 307.832 163.682C307.212 161.198 306.067 158.875 304.474 156.87V156.87Z" fill="#614522"/>
<path d="M126.747 120.207C127.286 120.349 127.85 120.373 128.399 120.278C128.948 120.184 129.471 119.972 129.931 119.657C130.392 119.343 130.779 118.934 131.068 118.456C131.356 117.979 131.539 117.446 131.603 116.892C131.69 115.928 131.426 114.965 130.859 114.18C130.292 113.396 129.461 112.842 128.518 112.622C126.597 112.103 124.605 111.892 122.618 111.998C121.586 112.083 120.629 112.57 119.952 113.353C119.274 114.136 118.931 115.153 118.996 116.187C119.061 117.22 119.528 118.187 120.298 118.879C121.067 119.572 122.078 119.935 123.112 119.891C124.333 119.823 125.557 119.929 126.747 120.207V120.207Z" fill="#614522"/>
<path d="M96.309 139.2C96.1478 140.22 96.3984 141.262 97.0056 142.098C97.6128 142.933 98.527 143.493 99.547 143.654C99.586 143.66 103.571 144.471 104.166 151.021C104.254 151.988 104.7 152.887 105.416 153.542C106.133 154.197 107.068 154.561 108.039 154.562C108.157 154.562 108.277 154.562 108.397 154.546C109.425 154.451 110.373 153.952 111.034 153.159C111.695 152.366 112.014 151.343 111.922 150.315C110.774 137.689 101.172 136.027 100.763 135.962C99.7432 135.802 98.7018 136.054 97.8669 136.661C97.032 137.268 96.4718 138.181 96.309 139.2Z" fill="#614522"/>
<path d="M91.635 152.019C89.8261 150.371 88.3348 148.405 87.235 146.219C87.0032 145.758 86.6821 145.347 86.2901 145.011C85.8982 144.675 85.4433 144.42 84.9519 144.261C84.4606 144.102 83.9426 144.043 83.4281 144.086C82.9136 144.13 82.4128 144.275 81.955 144.514C81.4972 144.752 81.0914 145.08 80.7612 145.477C80.4311 145.874 80.1832 146.333 80.032 146.826C79.8807 147.32 79.8292 147.839 79.8804 148.353C79.9315 148.866 80.0844 149.365 80.33 149.819C81.8591 152.823 83.9193 155.526 86.411 157.796C87.1794 158.474 88.184 158.821 89.207 158.763C90.23 158.705 91.1889 158.246 91.8758 157.486C92.5628 156.726 92.9224 155.726 92.8768 154.702C92.8311 153.678 92.3839 152.714 91.632 152.018L91.635 152.019Z" fill="#614522"/>
<path d="M91.534 179.6C91.9353 179.924 92.397 180.165 92.8923 180.309C93.3875 180.453 93.9064 180.497 94.4189 180.439C94.9313 180.381 95.4271 180.221 95.8775 179.97C96.3278 179.718 96.7237 179.38 97.0422 178.974C97.3607 178.569 97.5954 178.104 97.7328 177.607C97.8701 177.11 97.9074 176.59 97.8423 176.078C97.7773 175.567 97.6112 175.073 97.3538 174.626C97.0965 174.179 96.7529 173.788 96.343 173.475C96.1071 173.294 95.8815 173.099 95.667 172.893C94.954 172.152 93.9768 171.723 92.9487 171.7C91.9206 171.677 90.925 172.061 90.1794 172.769C89.4337 173.477 88.9984 174.452 88.9686 175.48C88.9387 176.508 89.3167 177.506 90.02 178.256C90.4915 178.74 90.9975 179.189 91.534 179.6V179.6Z" fill="#614522"/>
<path d="M101 193.1C100.566 192.829 100.083 192.647 99.5787 192.563C99.0743 192.479 98.5583 192.495 98.0601 192.61C97.5619 192.726 97.0913 192.938 96.6752 193.235C96.2591 193.533 95.9057 193.909 95.635 194.343C93.967 197.017 92.235 200.275 92.077 204.164C92.0554 204.675 92.1347 205.185 92.3103 205.665C92.486 206.146 92.7545 206.587 93.1006 206.963C93.4467 207.34 93.8636 207.644 94.3275 207.86C94.7913 208.075 95.2931 208.197 95.804 208.218C95.859 208.218 95.915 208.218 95.97 208.218C96.9737 208.216 97.9378 207.827 98.662 207.132C99.3862 206.437 99.8145 205.49 99.858 204.487C99.927 202.832 100.64 201.03 102.243 198.461C102.787 197.585 102.961 196.529 102.728 195.524C102.495 194.519 101.874 193.648 101 193.1V193.1Z" fill="#614522"/>
<path d="M77.867 89.5C73.884 90.695 70.025 94.576 69.292 95.342C68.5774 96.0876 68.1882 97.0866 68.2102 98.1192C68.2321 99.1518 68.6633 100.133 69.409 100.848C70.1547 101.563 71.1537 101.952 72.1862 101.93C73.2188 101.908 74.2004 101.477 74.915 100.731C76.16 99.438 78.594 97.412 80.105 96.959C81.0836 96.6534 81.9022 95.9742 82.3831 95.0688C82.8641 94.1634 82.9686 93.1049 82.6739 92.123C82.3793 91.141 81.7093 90.3149 80.8094 89.8238C79.9095 89.3327 78.8522 89.2164 77.867 89.5V89.5Z" fill="#614522"/>
<path d="M209.478 95.066C209.917 95.0253 210.363 94.978 210.815 94.924C211.841 94.802 212.776 94.2776 213.415 93.4661C214.054 92.6546 214.344 91.6226 214.222 90.597C214.1 89.5714 213.576 88.6363 212.764 87.9973C211.953 87.3584 210.921 87.068 209.895 87.19C209.51 87.237 209.131 87.276 208.76 87.311C207.762 87.4018 206.837 87.8739 206.178 88.6293C205.519 89.3846 205.177 90.3649 205.223 91.3662C205.268 92.3675 205.698 93.3126 206.423 94.0049C207.148 94.6972 208.112 95.0833 209.114 95.083C209.235 95.083 209.357 95.077 209.478 95.066Z" fill="#614522"/>
<path d="M183.64 137.231C183.642 138.263 184.052 139.253 184.782 139.983C185.512 140.713 186.502 141.123 187.534 141.125H189.486C190.519 141.125 191.509 140.715 192.239 139.984C192.97 139.254 193.38 138.264 193.38 137.231C193.38 136.198 192.97 135.208 192.239 134.478C191.509 133.747 190.519 133.337 189.486 133.337H187.534C186.502 133.339 185.512 133.749 184.782 134.479C184.052 135.209 183.642 136.199 183.64 137.231V137.231Z" fill="#614522"/>
<path d="M225.6 118.359C225.841 118.322 231.474 117.514 233.8 124.324C234.141 125.292 234.85 126.086 235.773 126.534C236.696 126.982 237.758 127.047 238.729 126.716C239.701 126.385 240.502 125.684 240.959 124.766C241.416 123.847 241.492 122.785 241.171 121.811C237.64 111.454 228.646 109.992 224.388 110.667C223.878 110.742 223.389 110.917 222.947 111.182C222.506 111.447 222.122 111.798 221.817 112.213C221.511 112.627 221.292 113.099 221.17 113.599C221.048 114.099 221.027 114.619 221.107 115.128C221.188 115.636 221.368 116.124 221.638 116.563C221.908 117.001 222.263 117.381 222.681 117.682C223.099 117.982 223.573 118.197 224.075 118.313C224.576 118.429 225.096 118.445 225.604 118.359H225.6Z" fill="#614522"/>
<path d="M246.643 135.639H248.913C249.946 135.639 250.936 135.229 251.667 134.498C252.397 133.768 252.807 132.778 252.807 131.745C252.807 130.712 252.397 129.722 251.667 128.992C250.936 128.261 249.946 127.851 248.913 127.851H246.643C245.61 127.851 244.62 128.261 243.89 128.992C243.159 129.722 242.749 130.712 242.749 131.745C242.749 132.778 243.159 133.768 243.89 134.498C244.62 135.229 245.61 135.639 246.643 135.639V135.639Z" fill="#614522"/>
<path d="M263.47 104.928C254.765 99.321 247.578 102.837 244.994 105.479C244.451 106.026 244.082 106.722 243.933 107.479C243.785 108.235 243.864 109.019 244.16 109.731C244.456 110.443 244.956 111.052 245.597 111.48C246.238 111.908 246.992 112.137 247.763 112.138C248.274 112.139 248.78 112.037 249.25 111.838C249.721 111.639 250.147 111.348 250.503 110.982C251.048 110.474 254.03 108.111 259.253 111.475C259.683 111.758 260.165 111.954 260.67 112.049C261.176 112.145 261.696 112.14 262.2 112.034C262.703 111.927 263.181 111.722 263.605 111.43C264.029 111.138 264.391 110.765 264.669 110.332C264.948 109.899 265.138 109.416 265.229 108.909C265.32 108.402 265.309 107.882 265.197 107.38C265.086 106.877 264.876 106.402 264.579 105.981C264.283 105.56 263.906 105.202 263.47 104.928V104.928Z" fill="#614522"/>
<path d="M259.394 122.317C259.198 123.327 259.409 124.374 259.98 125.229C260.552 126.085 261.437 126.681 262.445 126.888C263.795 127.205 265.056 127.82 266.137 128.688C266.919 129.363 267.938 129.699 268.968 129.622C269.998 129.546 270.956 129.064 271.63 128.281C272.305 127.499 272.641 126.481 272.565 125.451C272.489 124.42 272.006 123.463 271.224 122.788C269.113 121.032 266.609 119.814 263.924 119.239C262.915 119.048 261.872 119.265 261.023 119.842C260.174 120.419 259.588 121.309 259.394 122.317V122.317Z" fill="#614522"/>
<path d="M204.854 171.9C205.303 171.655 205.699 171.324 206.02 170.926C206.341 170.528 206.581 170.071 206.725 169.58C206.869 169.089 206.915 168.575 206.86 168.067C206.806 167.558 206.651 167.066 206.406 166.617L205.896 165.683C205.392 164.794 204.559 164.138 203.576 163.858C202.593 163.578 201.54 163.695 200.642 164.185C199.745 164.675 199.077 165.497 198.781 166.476C198.485 167.454 198.586 168.509 199.061 169.414L199.571 170.348C199.816 170.797 200.147 171.193 200.545 171.514C200.943 171.836 201.4 172.075 201.891 172.219C202.381 172.363 202.896 172.409 203.404 172.355C203.913 172.3 204.405 172.145 204.854 171.9V171.9Z" fill="#614522"/>
<path d="M230.176 164.967C228.949 165.487 227.62 165.725 226.289 165.662C225.58 165.609 224.871 165.75 224.236 166.071C223.602 166.391 223.067 166.878 222.689 167.48L222.61 167.609C222.268 168.168 222.075 168.805 222.05 169.459C222.024 170.113 222.167 170.763 222.464 171.347C222.761 171.93 223.203 172.428 223.747 172.792C224.292 173.156 224.92 173.375 225.573 173.427C225.956 173.458 226.355 173.475 226.773 173.475C229.058 173.458 231.315 172.977 233.408 172.061C233.901 171.85 234.345 171.54 234.713 171.15C235.081 170.759 235.364 170.298 235.546 169.793C235.727 169.288 235.802 168.751 235.766 168.216C235.731 167.681 235.585 167.159 235.339 166.683C234.844 165.809 234.041 165.149 233.088 164.832C232.134 164.515 231.096 164.563 230.176 164.967V164.967Z" fill="#614522"/>
<path d="M210.252 187.82C210.508 186.868 210.889 185.955 211.385 185.103C211.894 184.215 212.032 183.163 211.771 182.174C211.51 181.185 210.87 180.338 209.989 179.818C209.108 179.297 208.058 179.144 207.065 179.392C206.073 179.64 205.218 180.268 204.685 181.142C203.847 182.566 203.2 184.095 202.761 185.688C202.589 186.269 202.556 186.882 202.663 187.478C202.77 188.074 203.015 188.637 203.378 189.122C203.741 189.607 204.213 190 204.755 190.271C205.297 190.541 205.894 190.681 206.5 190.68C207.352 190.678 208.18 190.398 208.857 189.882C209.535 189.365 210.025 188.641 210.252 187.82V187.82Z" fill="#614522"/>
<path d="M22.32 193.383C24.5291 193.383 26.32 191.592 26.32 189.383C26.32 187.174 24.5291 185.383 22.32 185.383C20.1109 185.383 18.32 187.174 18.32 189.383C18.32 191.592 20.1109 193.383 22.32 193.383Z" fill="#614522"/>
<path d="M97.014 167.176C99.2231 167.176 101.014 165.385 101.014 163.176C101.014 160.967 99.2231 159.176 97.014 159.176C94.8048 159.176 93.014 160.967 93.014 163.176C93.014 165.385 94.8048 167.176 97.014 167.176Z" fill="#614522"/>
<path d="M74.342 139.15C76.5511 139.15 78.342 137.359 78.342 135.15C78.342 132.941 76.5511 131.15 74.342 131.15C72.1328 131.15 70.342 132.941 70.342 135.15C70.342 137.359 72.1328 139.15 74.342 139.15Z" fill="#614522"/>
<path d="M117.797 135.385C120.006 135.385 121.797 133.594 121.797 131.385C121.797 129.176 120.006 127.385 117.797 127.385C115.588 127.385 113.797 129.176 113.797 131.385C113.797 133.594 115.588 135.385 117.797 135.385Z" fill="#614522"/>
<path d="M91.716 91.92C93.9251 91.92 95.716 90.1291 95.716 87.92C95.716 85.7108 93.9251 83.92 91.716 83.92C89.5069 83.92 87.716 85.7108 87.716 87.92C87.716 90.1291 89.5069 91.92 91.716 91.92Z" fill="#614522"/>
<path d="M141.403 118.421C143.612 118.421 145.403 116.63 145.403 114.421C145.403 112.212 143.612 110.421 141.403 110.421C139.194 110.421 137.403 112.212 137.403 114.421C137.403 116.63 139.194 118.421 141.403 118.421Z" fill="#614522"/>
<path d="M100.158 222.031C102.367 222.031 104.158 220.24 104.158 218.031C104.158 215.822 102.367 214.031 100.158 214.031C97.9489 214.031 96.158 215.822 96.158 218.031C96.158 220.24 97.9489 222.031 100.158 222.031Z" fill="#614522"/>
<path d="M205.359 219.985C207.568 219.985 209.359 218.194 209.359 215.985C209.359 213.776 207.568 211.985 205.359 211.985C203.15 211.985 201.359 213.776 201.359 215.985C201.359 218.194 203.15 219.985 205.359 219.985Z" fill="#614522"/>
</svg>
