<svg width="289" height="114" viewBox="0 0 289 114" fill="none" xmlns="http://www.w3.org/2000/svg">
<g filter="url(#filter0_d_4_2)">
<path d="M57.984 85.432H54.816L51.936 82.36L50.784 79.288C50.72 79.16 50.688 79 50.688 78.808C50.688 78.616 50.656 78.392 50.592 78.136C50.528 77.752 50.432 77.304 50.304 76.792C50.24 76.216 50.144 75.512 50.016 74.68C49.376 71.608 48.864 70.488 48.48 71.32C47.2 74.008 45.92 76.216 44.64 77.944C43.36 79.608 42.464 80.92 41.952 81.88L41.28 83.608L39.264 87.928L29.088 88.024L27.84 88.6L24.288 86.776C24.032 86.136 23.744 85.4 23.424 84.568C23.168 83.736 22.88 82.808 22.56 81.784C22.432 81.464 22.176 81.176 21.792 80.92C21.408 80.6 21.024 80.312 20.64 80.056C20.32 79.736 20.064 79.416 19.872 79.096C19.68 78.776 19.68 78.424 19.872 78.04C20.128 77.656 20.128 77.272 19.872 76.888C19.68 76.44 19.392 75.992 19.008 75.544C18.688 75.096 18.368 74.712 18.048 74.392C17.792 74.008 17.728 73.72 17.856 73.528C18.624 72.376 19.04 71.448 19.104 70.744C19.232 69.976 19.168 69.304 18.912 68.728C18.72 68.28 18.496 67.992 18.24 67.864C17.984 67.736 17.728 67.672 17.472 67.672C17.216 67.672 16.96 67.672 16.704 67.672C16.512 67.608 16.352 67.448 16.224 67.192C15.904 66.552 15.744 65.944 15.744 65.368C15.744 64.728 15.68 64.376 15.552 64.312C15.232 64.184 14.88 64.12 14.496 64.12C14.112 64.056 13.568 63.8 12.864 63.352C11.648 57.912 9.536 52.504 6.528 47.128C5.504 45.08 4.736 43.16 4.224 41.368C3.712 39.512 3.04 38.2 2.208 37.432V33.208C2.784 32.824 3.392 32.568 4.032 32.44C5.248 32.248 6.144 31.672 6.72 30.712L10.368 30.52C10.624 30.776 11.072 30.904 11.712 30.904C12.416 30.904 13.12 30.872 13.824 30.808C14.528 30.744 15.168 30.68 15.744 30.616C16.32 30.552 16.672 30.616 16.8 30.808C17.952 32.152 19.296 33.208 20.832 33.976C20.768 34.36 20.992 35.352 21.504 36.952C22.016 38.488 22.688 40.376 23.52 42.616C24.352 44.792 25.28 47.128 26.304 49.624C27.328 52.12 28.256 54.552 29.088 56.92C29.984 59.224 30.72 61.304 31.296 63.16C31.936 64.952 32.288 66.232 32.352 67C34.72 71.224 36.192 73.464 36.768 73.72C37.728 74.04 38.688 73.752 39.648 72.856C40.608 71.896 41.024 70.2 40.896 67.768C40.768 65.4 41.056 63.512 41.76 62.104C42.464 60.632 43.008 59.448 43.392 58.552C43.072 58.168 42.848 57.752 42.72 57.304C42.592 56.792 42.464 56.312 42.336 55.864C42.272 55.416 42.176 55.064 42.048 54.808C41.92 54.488 41.696 54.328 41.376 54.328C41.44 54.264 41.472 54.2 41.472 54.136C41.472 54.072 41.504 53.976 41.568 53.848C41.632 53.72 41.696 53.528 41.76 53.272C41.824 53.016 41.856 52.728 41.856 52.408C41.856 52.28 41.664 51.192 41.28 49.144C41.216 48.632 41.152 48.024 41.088 47.32C41.024 46.552 40.96 45.784 40.896 45.016C40.896 44.248 40.864 43.576 40.8 43C40.8 42.36 40.8 41.88 40.8 41.56C40.288 40.664 39.936 39.672 39.744 38.584C39.552 37.496 39.04 36.504 38.208 35.608C38.08 35.416 38.016 35.096 38.016 34.648C38.016 34.2 38.048 33.752 38.112 33.304C38.176 32.856 38.272 32.28 38.4 31.576L41.856 31.096L42.528 30.424C42.912 30.04 43.52 29.784 44.352 29.656C44.8 29.656 45.472 29.624 46.368 29.56C47.264 29.496 48.16 29.464 49.056 29.464C50.016 29.464 50.848 29.56 51.552 29.752C52.32 29.944 52.768 30.264 52.896 30.712C52.96 31.032 53.536 31.224 54.624 31.288C54.944 32.952 55.296 34.84 55.68 36.952C56.064 39.064 56.416 41.208 56.736 43.384C57.056 45.496 57.28 47.544 57.408 49.528C57.6 51.512 57.664 53.272 57.6 54.808C57.92 55.064 57.984 55.32 57.792 55.576C57.664 55.832 57.632 56.312 57.696 57.016C57.952 57.4 58.144 57.912 58.272 58.552C58.464 59.128 58.56 59.576 58.56 59.896C58.56 60.152 58.496 60.568 58.368 61.144C58.304 61.72 58.08 62.52 57.696 63.544C57.44 63.48 57.088 63.544 56.64 63.736C56.256 63.928 55.872 64.216 55.488 64.6C55.168 64.92 54.88 65.304 54.624 65.752C54.432 66.136 54.4 66.52 54.528 66.904C54.976 67.608 55.68 68.152 56.64 68.536C57.664 68.856 58.624 68.952 59.52 68.824C60.224 69.016 60.832 69.016 61.344 68.824C61.856 68.568 62.272 68.024 62.592 67.192L68.16 56.92L67.968 53.368L74.88 36.856L78.528 31.768H83.424L84.384 32.92L85.248 36.376L80.544 46.744L76.896 54.904L72.288 63.256L65.088 75.544L61.728 80.824V82.744L57.984 85.432ZM88.8675 28.984C88.9955 28.472 89.0595 27.992 89.0595 27.544C89.1235 27.032 89.1875 26.52 89.2515 26.008C89.2515 25.56 89.2515 25.176 89.2515 24.856C89.3155 24.536 89.3475 24.248 89.3475 23.992L89.8275 22.936C90.0195 22.872 90.2755 22.84 90.5955 22.84C90.9155 22.84 91.2995 22.808 91.7475 22.744C93.0915 22.68 93.9555 22.52 94.3395 22.264C94.3395 22.2 94.4995 22.072 94.8195 21.88C95.0115 21.688 95.1715 21.56 95.2995 21.496C95.3635 21.496 95.5875 21.528 95.9715 21.592C96.3555 21.656 96.8675 21.784 97.5075 21.976C98.5955 22.232 99.3635 22.36 99.8115 22.36C100.387 22.36 100.707 22.328 100.771 22.264C100.835 22.2 101.027 22.2 101.347 22.264L102.211 23.896L103.075 28.792L101.059 32.152C100.995 32.216 100.931 32.28 100.867 32.344C100.867 32.408 100.803 32.472 100.675 32.536C100.355 32.728 99.9715 33.016 99.5235 33.4L99.2355 33.688L96.3555 33.976C95.9715 33.848 95.5235 33.72 95.0115 33.592C94.4995 33.4 93.8915 33.176 93.1875 32.92C92.4835 32.664 91.8755 32.44 91.3635 32.248C90.8515 31.992 90.4035 31.8 90.0195 31.672L89.5395 31.192L88.8675 28.984ZM100.771 45.496L100.387 48.952L100.771 50.392L100.195 51.928L100.483 54.136L100.003 55.96L100.291 56.536L99.9075 60.856L99.5235 69.976C99.5235 70.424 99.4595 71 99.3315 71.704C99.2035 72.344 99.1075 73.048 99.0435 73.816C98.9795 74.52 98.9795 75.256 99.0435 76.024C99.1075 76.728 99.2995 77.336 99.6195 77.848C99.5555 78.808 99.4595 79.928 99.3315 81.208C99.2035 82.488 98.9795 83.96 98.6595 85.624C98.1475 86.328 97.6035 86.968 97.0275 87.544C96.5155 88.056 95.5235 88.344 94.0515 88.408C93.2195 88.472 92.3875 88.536 91.5555 88.6C90.7875 88.664 90.0515 88.76 89.3475 88.888C88.9635 88.952 88.5795 89.016 88.1955 89.08C87.8115 89.144 87.3955 89.24 86.9475 89.368L84.5475 86.296C84.6115 85.976 84.7075 85.112 84.8355 83.704C85.0275 82.232 85.1875 80.504 85.3155 78.52C85.4435 76.536 85.5075 74.424 85.5075 72.184C85.5715 69.944 85.5075 67.864 85.3155 65.944L85.8915 64.12L86.7555 59.896L87.0435 56.536L87.6195 55.384L87.7155 54.52L88.2915 51.928L88.7715 46.648L97.4115 43.288L100.771 45.496ZM126.745 74.008L127.129 80.824L126.745 84.376V86.2L124.921 88.792L121.753 89.56L113.497 91.096C112.793 91.224 112.217 91.128 111.769 90.808C111.385 90.424 111.193 89.496 111.193 88.024V87.832L112.729 80.536L113.017 74.008V70.36L114.169 62.104C114.105 61.784 114.041 61.176 113.977 60.28C113.913 59.384 113.817 58.264 113.689 56.92C113.625 56.216 113.593 55.576 113.593 55C113.593 54.424 113.561 53.912 113.497 53.464V51.448C113.497 51.512 113.721 51.32 114.169 50.872C114.617 50.36 115.001 49.752 115.321 49.048C115.641 48.28 115.769 47.448 115.705 46.552C115.641 45.656 115.097 44.824 114.073 44.056L115.705 27.448C116.153 27.192 116.185 26.424 115.801 25.144L117.721 23.224L118.969 23.032C119.225 23.096 119.641 23.16 120.217 23.224C120.793 23.224 121.401 23.256 122.041 23.32C122.681 23.32 123.289 23.352 123.865 23.416C124.505 23.416 124.985 23.448 125.305 23.512C125.881 23.64 126.617 23.736 127.513 23.8C128.409 23.8 129.049 23.896 129.433 24.088L131.353 25.144V26.968C131.545 27.352 131.513 27.896 131.257 28.6C131.065 29.24 131.001 30.008 131.065 30.904C131.065 31.352 131.033 31.864 130.969 32.44C130.905 33.016 130.841 33.56 130.777 34.072C130.777 34.584 130.745 35.032 130.681 35.416C130.617 35.8 130.585 36.024 130.585 36.088C130.585 36.216 130.553 36.376 130.489 36.568L130.393 37.336C130.393 37.592 130.329 37.816 130.201 38.008C130.137 38.2 130.073 38.264 130.009 38.2C129.945 38.2 129.785 38.392 129.529 38.776C129.337 39.16 129.113 39.64 128.857 40.216C128.665 40.728 128.505 41.272 128.377 41.848C128.249 42.424 128.217 42.872 128.281 43.192C128.345 43.512 128.409 44.024 128.473 44.728C128.537 45.368 128.601 46.264 128.665 47.416C128.665 47.992 128.665 48.504 128.665 48.952C128.729 49.4 128.761 49.784 128.761 50.104C128.761 50.488 128.793 50.776 128.857 50.968L128.185 56.632L128.377 59.416C127.481 61.208 127.065 62.456 127.129 63.16C127.257 63.864 127.641 64.44 128.281 64.888L126.745 74.008ZM173.922 22.264L182.658 22.84C183.874 22.84 184.354 23.512 184.098 24.856C183.586 25.88 183.202 27.224 182.946 28.888C182.69 30.488 182.498 32.248 182.37 34.168C181.602 39.864 181.026 44.856 180.642 49.144C180.322 53.368 180.066 56.952 179.874 59.896C179.682 62.84 179.49 65.176 179.298 66.904C179.17 68.632 178.946 69.816 178.626 70.456L179.394 78.52L179.01 80.056C179.202 80.568 179.394 81.08 179.586 81.592C179.842 82.04 180.034 82.424 180.162 82.744C180.418 83.256 180.578 83.608 180.642 83.8C180.642 84.12 180.386 84.472 179.874 84.856C179.426 85.24 178.85 85.624 178.146 86.008C177.442 86.392 176.674 86.776 175.842 87.16C175.01 87.48 174.242 87.768 173.538 88.024C172.962 87.96 172.514 87.864 172.194 87.736C171.938 87.608 171.714 87.416 171.522 87.16C171.33 86.904 171.138 86.552 170.946 86.104C170.818 85.656 170.562 85.08 170.178 84.376C169.538 84.12 168.674 84.056 167.586 84.184C166.498 84.248 165.602 84.6 164.898 85.24C164.642 85.944 164.386 86.424 164.13 86.68C163.938 86.936 163.714 87.16 163.458 87.352C163.266 87.48 163.01 87.608 162.69 87.736C162.37 87.864 161.986 88.12 161.538 88.504C159.874 88.632 158.498 88.696 157.41 88.696C156.386 88.696 155.458 88.632 154.626 88.504C153.858 88.312 153.122 88.088 152.418 87.832C151.714 87.512 150.914 87.096 150.018 86.584C148.674 86.392 147.522 86.104 146.562 85.72C145.666 85.336 144.898 84.92 144.258 84.472C143.682 83.96 143.17 83.448 142.722 82.936C142.274 82.36 141.858 81.848 141.474 81.4L137.346 72.184L138.018 64.216C138.53 63.896 138.914 63.672 139.17 63.544C139.49 63.416 139.746 63.288 139.938 63.16C140.13 63.032 140.29 62.872 140.418 62.68C140.61 62.424 140.834 62.008 141.09 61.432C141.282 61.368 141.41 61.176 141.474 60.856C141.602 60.536 141.634 60.184 141.57 59.8C141.57 59.416 141.506 59.032 141.378 58.648C141.25 58.264 141.058 57.976 140.802 57.784L144.066 52.792C144.258 52.792 144.61 52.632 145.122 52.312C145.634 51.928 146.242 51.512 146.946 51.064C147.65 50.552 148.418 50.072 149.25 49.624C150.146 49.176 151.074 48.856 152.034 48.664C153.826 48.152 155.202 47.896 156.162 47.896C157.122 47.832 157.698 47.768 157.89 47.704C158.274 47.96 158.722 48.152 159.234 48.28C159.746 48.408 160.226 48.536 160.674 48.664C161.186 48.728 161.602 48.792 161.922 48.856C162.306 48.856 162.53 48.856 162.594 48.856C162.658 48.856 162.754 49.048 162.882 49.432C163.01 49.816 163.17 50.296 163.362 50.872C163.554 51.448 163.81 52.024 164.13 52.6C164.45 53.176 164.834 53.656 165.282 54.04L167.01 54.616L168.546 54.04L168.93 49.336L168.45 45.496C168.77 44.664 168.962 43.96 169.026 43.384C169.154 42.744 169.186 42.104 169.122 41.464C169.122 40.824 169.09 40.184 169.026 39.544C168.962 38.84 168.93 38.04 168.93 37.144C169.826 36.12 170.338 35.128 170.466 34.168C170.658 33.208 170.21 32.216 169.122 31.192L169.026 27.064L171.618 22.648L173.922 22.264ZM164.034 81.976L166.818 78.808C166.626 78.552 166.69 78.072 167.01 77.368C167.33 76.664 167.426 75.864 167.298 74.968C167.234 74.52 167.202 73.528 167.202 71.992C167.266 70.456 167.33 68.856 167.394 67.192C167.458 65.528 167.522 64.056 167.586 62.776C167.65 61.432 167.042 60.088 165.762 58.744L159.81 56.248L154.242 57.784L151.65 60.664C151.01 61.688 150.498 62.616 150.114 63.448C149.794 64.28 149.57 65.144 149.442 66.04C149.314 66.872 149.282 67.736 149.346 68.632C149.41 69.528 149.538 70.52 149.73 71.608C149.602 72.888 149.794 73.912 150.306 74.68C150.818 75.448 151.586 76.088 152.61 76.6L156.066 80.344L158.946 81.688C159.394 81.88 159.746 82.072 160.002 82.264C160.322 82.392 160.61 82.488 160.866 82.552C161.186 82.552 161.57 82.52 162.018 82.456C162.53 82.392 163.202 82.232 164.034 81.976Z" fill="white"/>
<path d="M203.224 83.128C203.16 83.064 203.128 82.712 203.128 82.072C203.128 81.112 203.224 80.184 203.416 79.288C203.608 78.328 203.704 77.304 203.704 76.216C203.704 74.232 203.672 72.28 203.608 70.36C203.544 68.376 203.512 66.36 203.512 64.312V54.904C203.512 52.408 203.448 49.944 203.32 47.512C203.256 45.08 203.224 42.648 203.224 40.216C203.224 37.272 203.256 34.456 203.32 31.768C203.448 29.08 203.512 26.296 203.512 23.416C203.512 22.584 203.384 21.944 203.128 21.496C202.616 21.752 201.784 21.88 200.632 21.88C199.352 21.88 198.008 21.752 196.6 21.496C195.192 21.24 193.752 21.112 192.28 21.112H191.32C191.256 20.984 191.224 20.824 191.224 20.632C191.224 20.44 191.096 20.344 190.84 20.344H190.744C190.744 20.344 190.68 20.472 190.552 20.728C190.424 20.984 190.264 21.272 190.072 21.592C189.88 21.848 189.656 22.104 189.4 22.36C189.208 22.552 188.984 22.648 188.728 22.648C188.728 23.032 188.856 23.192 189.112 23.128C189.432 23.064 189.624 23.192 189.688 23.512C189.752 24.152 189.784 24.76 189.784 25.336C189.848 25.912 189.88 26.52 189.88 27.16V30.52C189.88 33.976 189.784 37.304 189.592 40.504C189.4 43.704 189.304 46.968 189.304 50.296C189.304 57.272 189.464 64.12 189.784 70.84C190.168 77.496 190.392 84.216 190.456 91C190.776 91.064 191.064 91.096 191.32 91.096C191.576 91.16 191.832 91.192 192.088 91.192H193.816C194.904 91.192 196.024 91.16 197.176 91.096C198.392 91.032 199.64 91 200.92 91C201.432 91 201.88 91 202.264 91C202.712 91.064 203.192 91.096 203.704 91.096V90.52C203.704 89.432 203.64 88.248 203.512 86.968C203.384 85.688 203.288 84.408 203.224 83.128ZM191.224 89.944C191.224 88.984 191.224 88.024 191.224 87.064C191.288 86.104 191.32 85.144 191.32 84.184C191.32 80.856 191.256 77.528 191.128 74.2C191.064 70.872 191.032 67.544 191.032 64.216C191.032 62.552 191.064 60.92 191.128 59.32C191.192 57.72 191.224 56.088 191.224 54.424C191.224 53.4 191.192 52.408 191.128 51.448C191.128 50.424 191.128 49.368 191.128 48.28C191.128 46.104 191.224 43.992 191.416 41.944C191.608 39.896 191.704 37.432 191.704 34.552C191.704 33.208 191.672 31.864 191.608 30.52C191.608 29.176 191.576 27.96 191.512 26.872C191.512 25.72 191.48 24.76 191.416 23.992C191.352 23.16 191.288 22.616 191.224 22.36C191.672 22.104 192.376 21.976 193.336 21.976C193.784 21.976 194.584 22.2 195.736 22.648C196.952 23.096 198.392 23.32 200.056 23.32C200.824 23.32 201.432 23.192 201.88 22.936C202.008 27.16 202.072 31.32 202.072 35.416C202.136 39.512 202.168 43.608 202.168 47.704V59.512C202.168 64.504 202.2 69.432 202.264 74.296C202.328 79.16 202.488 84.088 202.744 89.08C202.232 89.016 201.72 88.984 201.208 88.984C200.696 88.92 200.152 88.888 199.576 88.888C196.504 88.888 193.72 89.24 191.224 89.944ZM218.205 42.52C218.141 42.584 217.853 42.616 217.341 42.616C215.741 42.68 214.493 42.712 213.597 42.712C212.701 42.712 212.125 42.712 211.869 42.712C211.165 42.712 210.301 42.616 209.277 42.424C208.317 42.232 207.389 42.136 206.493 42.136C205.853 42.136 205.341 42.232 204.957 42.424C205.085 42.936 205.149 43.448 205.149 43.96V48.664C204.765 54.872 204.413 61.08 204.093 67.288C203.837 73.496 203.709 79.512 203.709 85.336V88.792C203.709 89.496 203.741 90.136 203.805 90.712C203.869 91.288 203.997 91.576 204.189 91.576C204.445 91.576 204.541 91.416 204.477 91.096C204.477 90.84 204.637 90.68 204.957 90.616C206.045 90.616 207.229 90.648 208.509 90.712C209.789 90.776 211.101 90.808 212.445 90.808H213.885C214.781 90.808 215.709 90.744 216.669 90.616C217.629 90.488 218.109 90.2 218.109 89.752C218.109 89.432 218.013 89.208 217.821 89.08C217.693 88.888 217.565 88.632 217.437 88.312V85.144C217.437 79.704 217.597 74.008 217.917 68.056C218.237 62.104 218.397 56.216 218.397 50.392C218.397 49.048 218.365 47.736 218.301 46.456C218.301 45.112 218.269 43.8 218.205 42.52ZM215.517 88.6C212.509 88.6 210.301 88.568 208.893 88.504C207.485 88.44 206.493 88.376 205.917 88.312C205.341 88.248 205.021 88.184 204.957 88.12C204.957 88.056 204.861 88.024 204.669 88.024C204.605 86.68 204.541 85.336 204.477 83.992C204.477 82.648 204.477 81.304 204.477 79.96C204.477 78.232 204.509 76.472 204.573 74.68C204.637 72.888 204.733 71.064 204.861 69.208C205.053 66.52 205.117 63.768 205.053 60.952C205.053 58.072 205.309 55.192 205.821 52.312C205.949 50.776 205.981 49.272 205.917 47.8C205.917 46.264 206.173 44.888 206.685 43.672C207.645 43.8 208.733 43.896 209.949 43.96C211.229 44.024 212.573 44.056 213.981 44.056H215.709C216.029 44.056 216.317 44.056 216.573 44.056C216.829 44.056 217.117 44.024 217.437 43.96C216.989 51.512 216.733 58.968 216.669 66.328C216.669 73.624 216.541 81.048 216.285 88.6H215.517ZM204.861 23.128C204.733 23.576 204.637 23.992 204.573 24.376C204.573 24.76 204.573 25.144 204.573 25.528C204.573 28.792 204.765 31.352 205.149 33.208C205.533 35 205.789 35.896 205.917 35.896H206.109C206.301 35.896 206.493 35.992 206.685 36.184C206.685 35.928 207.133 35.736 208.029 35.608C208.925 35.416 209.949 35.288 211.101 35.224C212.317 35.096 213.501 35.032 214.653 35.032C215.805 35.032 216.637 35.032 217.149 35.032C217.469 35.032 217.629 35.128 217.629 35.32V35.896C217.629 36.216 217.725 36.376 217.917 36.376C218.109 36.056 218.173 35.736 218.109 35.416C218.045 35.096 218.173 34.872 218.493 34.744C218.301 33.144 218.141 31.48 218.013 29.752C217.885 27.96 217.821 26.328 217.821 24.856V23.512C217.821 22.936 217.853 22.584 217.917 22.456C217.725 22.52 217.341 22.552 216.765 22.552H215.613C213.565 22.552 211.613 22.456 209.757 22.264C207.965 22.072 206.077 21.944 204.093 21.88C204.093 22.264 204.221 22.488 204.477 22.552C204.733 22.552 204.861 22.744 204.861 23.128ZM206.301 23.992C206.429 24.056 206.941 24.088 207.837 24.088C208.029 24.088 208.445 24.088 209.085 24.088C209.725 24.024 210.365 23.992 211.005 23.992C211.709 23.928 212.317 23.864 212.829 23.8C213.405 23.672 213.693 23.544 213.693 23.416C213.693 23.288 213.661 23.192 213.597 23.128C213.597 23.064 213.597 22.968 213.597 22.84H213.981C214.493 22.84 215.005 22.904 215.517 23.032C216.029 23.096 216.381 23.192 216.573 23.32C216.509 23.448 216.477 23.928 216.477 24.76C216.477 26.296 216.605 27.864 216.861 29.464C217.117 31 217.309 32.536 217.437 34.072C216.797 34.328 216.093 34.488 215.325 34.552C214.621 34.616 213.885 34.648 213.117 34.648C212.413 34.648 211.741 34.648 211.101 34.648C210.461 34.584 209.853 34.552 209.277 34.552C208.957 34.552 208.637 34.584 208.317 34.648C208.061 34.648 207.805 34.648 207.549 34.648C207.549 34.392 207.485 33.976 207.357 33.4C207.293 32.824 207.197 32.248 207.069 31.672C207.005 31.032 206.909 30.488 206.781 30.04C206.717 29.592 206.653 29.368 206.589 29.368V29.56C206.525 29.112 206.461 28.504 206.397 27.736C206.333 26.968 206.237 26.04 206.109 24.952L206.301 23.992ZM250.368 45.016C248.32 45.72 245.984 46.04 243.36 45.976C240.8 45.848 238.304 45.944 235.872 46.264C235.424 45.432 235.2 44.6 235.2 43.768C235.2 42.488 235.616 41.4 236.448 40.504C237.28 39.608 238.336 39.096 239.616 38.968C239.936 38.968 240.224 39 240.48 39.064C240.8 39.064 241.248 39.064 241.824 39.064C242.848 39.064 244.32 38.904 246.24 38.584C248.224 38.264 250.016 37.88 251.616 37.432C251.36 36.216 251.2 35.064 251.136 33.976C251.072 32.888 251.04 31.832 251.04 30.808C251.04 29.912 251.04 29.112 251.04 28.408C251.104 27.704 251.136 27.064 251.136 26.488C251.136 25.4 250.752 24.792 249.984 24.664C249.216 24.536 248.192 24.472 246.912 24.472C245.376 24.472 243.84 24.632 242.304 24.952C240.768 25.208 239.52 25.4 238.56 25.528L238.656 25.432C238.656 25.176 238.56 25.048 238.368 25.048C237.792 25.048 237.28 25.176 236.832 25.432C236.384 25.624 235.936 25.848 235.488 26.104C235.04 26.36 234.592 26.616 234.144 26.872C233.76 27.064 233.312 27.16 232.8 27.16C232.16 27.16 231.712 27.352 231.456 27.736C231.2 28.056 230.816 28.312 230.304 28.504C229.664 28.76 229.056 29.016 228.48 29.272C227.968 29.528 227.456 29.88 226.944 30.328C226.432 30.776 225.92 31.384 225.408 32.152C224.896 32.92 224.352 33.912 223.776 35.128C223.264 36.28 222.88 37.368 222.624 38.392C222.432 39.352 222.272 40.248 222.144 41.08C222.08 41.848 221.984 42.584 221.856 43.288C221.792 43.928 221.568 44.536 221.184 45.112C220.16 45.112 219.168 44.952 218.208 44.632C217.312 44.312 216.512 44.088 215.808 43.96C215.808 44.344 215.776 44.568 215.712 44.632C215.648 44.632 215.552 44.792 215.424 45.112C215.552 45.496 215.648 46.008 215.712 46.648C215.776 47.288 215.808 47.96 215.808 48.664V56.056C215.872 56.568 215.904 57.08 215.904 57.592C215.904 58.04 215.936 58.424 216 58.744C216.704 58.744 217.6 58.84 218.688 59.032C219.84 59.224 220.928 59.384 221.952 59.512C222.016 60.856 222.112 62.296 222.24 63.832C222.368 65.368 222.432 66.904 222.432 68.44C222.432 69.528 222.336 70.584 222.144 71.608C221.952 72.632 221.856 73.688 221.856 74.776C221.856 76.696 221.888 78.52 221.952 80.248C222.08 81.976 222.144 83.48 222.144 84.76C222.144 85.656 222.08 86.424 221.952 87.064C221.888 87.704 221.856 88.312 221.856 88.888C221.856 89.784 221.952 90.36 222.144 90.616C224 90.616 225.792 90.648 227.52 90.712C229.248 90.712 231.232 90.776 233.472 90.904C233.792 90.968 234.048 91 234.24 91C234.496 91.064 234.72 91.096 234.912 91.096C235.424 91.096 235.776 90.872 235.968 90.424C235.456 89.976 235.136 89.24 235.008 88.216C234.88 87.192 234.816 86.2 234.816 85.24C234.816 83.96 234.912 82.584 235.104 81.112C235.296 79.64 235.456 78.168 235.584 76.696C235.712 73.24 235.808 69.848 235.872 66.52C236 63.128 236.224 60.088 236.544 57.4C237.632 58.104 238.912 58.456 240.384 58.456C241.664 58.456 243.008 58.328 244.416 58.072C245.888 57.752 247.296 57.592 248.64 57.592H249.696C250.144 56.12 250.4 54.36 250.464 52.312C250.592 50.264 250.688 48.408 250.752 46.744C250.496 46.744 250.368 46.584 250.368 46.264C250.432 45.88 250.432 45.464 250.368 45.016ZM248.544 55.48C247.392 55.992 246.208 56.312 244.992 56.44C243.776 56.568 242.464 56.632 241.056 56.632C240.928 56.632 240.64 56.632 240.192 56.632C239.808 56.632 239.392 56.632 238.944 56.632C238.496 56.632 238.08 56.6 237.696 56.536C237.312 56.472 237.12 56.376 237.12 56.248V56.056C237.12 55.992 237.024 55.896 236.832 55.768C236.448 55.96 235.936 56.024 235.296 55.96C234.656 55.896 234.144 56.056 233.76 56.44V59.608C233.76 63.896 233.504 68.024 232.992 71.992C232.544 75.896 232.32 79.96 232.32 84.184C232.32 84.504 232.32 84.792 232.32 85.048C232.384 85.304 232.416 85.592 232.416 85.912C232.416 87.128 232.288 88.216 232.032 89.176C230.816 89.048 229.568 88.952 228.288 88.888C227.072 88.824 225.984 88.632 225.024 88.312C225.088 88.12 225.12 87.736 225.12 87.16C224.992 86.392 224.864 85.24 224.736 83.704C224.608 82.168 224.48 80.568 224.352 78.904C224.224 77.176 224.128 75.576 224.064 74.104C224 72.568 223.968 71.448 223.968 70.744C223.968 69.848 224.032 69.016 224.16 68.248C224.288 67.48 224.352 66.648 224.352 65.752C224.352 64.6 224.224 63.448 223.968 62.296C223.776 61.144 223.68 60.024 223.68 58.936C223.68 58.36 223.776 57.72 223.968 57.016C223.52 56.568 223.296 55.864 223.296 54.904C222.976 55.672 222.336 56.152 221.376 56.344C220.48 56.472 219.552 56.536 218.592 56.536H216.96C216.896 55.704 216.8 54.84 216.672 53.944C216.608 52.984 216.576 51.96 216.576 50.872C216.576 49.336 216.832 48.344 217.344 47.896C217.92 47.384 218.528 47.128 219.168 47.128C219.424 47.128 219.68 47.16 219.936 47.224C220.192 47.224 220.48 47.256 220.8 47.32C221.376 47.32 221.792 47.16 222.048 46.84C222.368 46.52 222.72 46.36 223.104 46.36L223.392 46.456L223.68 46.168C223.872 43.672 224.352 41.24 225.12 38.872C225.952 36.504 227.008 34.488 228.288 32.824C227.328 33.784 226.432 35 225.6 36.472C224.832 37.944 224.288 39.576 223.968 41.368V40.504C223.968 37.304 224.704 34.776 226.176 32.92C227.712 31.064 229.664 29.592 232.032 28.504C231.968 28.952 231.648 29.368 231.072 29.752C230.496 30.136 230.048 30.584 229.728 31.096C230.816 30.264 231.872 29.4 232.896 28.504C233.984 27.608 235.456 27.096 237.312 26.968C237.44 26.968 237.664 27 237.984 27.064C238.368 27.064 238.816 27.096 239.328 27.16C240.672 27.16 242.08 26.904 243.552 26.392C245.088 25.816 246.4 25.528 247.488 25.528C248.832 25.528 249.632 25.688 249.888 26.008C250.208 26.264 250.368 26.936 250.368 28.024C250.368 30.072 250.336 31.832 250.272 33.304C250.272 34.776 250.24 35.928 250.176 36.76C248.704 37.208 247.2 37.56 245.664 37.816C244.192 38.072 242.976 38.2 242.016 38.2C241.504 38.2 241.088 38.2 240.768 38.2C240.448 38.136 240.128 38.104 239.808 38.104C238.272 38.104 236.96 38.744 235.872 40.024C234.848 41.24 234.336 42.616 234.336 44.152C234.336 45.176 234.56 46.104 235.008 46.936L236.64 47.128C237.664 47.128 238.656 47 239.616 46.744C240.64 46.424 241.664 46.264 242.688 46.264C243.072 46.264 243.744 46.296 244.704 46.36C245.664 46.424 246.88 46.52 248.352 46.648C248.544 46.648 248.896 46.584 249.408 46.456C249.28 46.968 249.184 47.608 249.12 48.376C249.12 49.144 249.024 50.744 248.832 53.176L248.544 55.48ZM270.615 67.096C272.279 67.16 273.911 67.288 275.511 67.48C277.111 67.608 278.615 67.672 280.023 67.672C281.239 67.672 282.327 67.576 283.287 67.384C284.247 67.192 285.079 66.744 285.783 66.04C286.039 65.208 286.167 63.96 286.167 62.296C286.167 60.632 286.007 58.968 285.687 57.304C285.431 55.64 285.175 54.072 284.919 52.6C284.343 52.28 283.991 51.704 283.863 50.872C283.799 50.04 283.607 49.272 283.287 48.568C282.967 47.608 282.327 46.712 281.367 45.88C280.407 45.048 279.223 44.344 277.815 43.768C276.471 43.128 274.967 42.648 273.303 42.328C271.703 41.944 270.071 41.752 268.407 41.752C266.679 41.752 265.015 41.88 263.415 42.136C261.815 42.328 260.343 42.616 258.999 43C257.719 43.384 256.599 43.832 255.639 44.344C254.679 44.792 253.975 45.24 253.527 45.688C251.543 47.608 250.167 50.136 249.399 53.272C248.631 56.408 248.247 59.832 248.247 63.544V70.36C248.247 73.368 248.631 76.216 249.399 78.904C250.231 81.528 251.447 83.832 253.047 85.816C254.711 87.8 256.759 89.368 259.191 90.52C261.687 91.672 264.599 92.248 267.927 92.248C269.463 92.248 270.999 92.088 272.535 91.768C274.135 91.512 275.639 91.128 277.047 90.616C278.455 90.04 279.703 89.432 280.791 88.792C281.879 88.088 282.775 87.352 283.479 86.584C284.247 85.688 284.727 84.472 284.919 82.936C285.175 81.336 285.303 79.704 285.303 78.04C285.303 76.952 285.271 75.864 285.207 74.776C285.207 73.624 285.207 72.568 285.207 71.608C284.951 71.864 284.535 71.992 283.959 71.992C283.639 71.992 283.095 71.992 282.327 71.992C281.623 71.992 280.791 71.992 279.831 71.992C278.935 71.992 277.975 71.96 276.951 71.896C275.927 71.832 274.999 71.736 274.167 71.608C274.039 73.656 273.527 75.48 272.631 77.08C271.735 78.616 270.199 79.384 268.023 79.384C266.359 79.384 265.143 78.936 264.375 78.04C263.671 77.144 263.159 76.024 262.839 74.68C262.519 73.336 262.295 71.928 262.167 70.456C262.039 68.92 261.783 67.512 261.399 66.232C262.039 66.552 262.647 66.776 263.223 66.904C263.863 67.032 264.471 67.096 265.047 67.096C265.559 67.096 266.071 67.064 266.583 67C267.095 66.936 267.575 66.904 268.023 66.904C268.343 66.904 268.695 66.968 269.079 67.096C269.463 67.224 269.815 67.288 270.135 67.288L270.615 67.096ZM261.783 64.024C261.463 64.6 261.143 64.888 260.823 64.888C260.695 64.888 260.567 64.888 260.439 64.888C260.311 64.824 260.183 64.792 260.055 64.792C259.543 66.648 259.287 68.28 259.287 69.688C259.287 71.16 259.479 72.632 259.863 74.104C260.247 75.576 260.791 76.888 261.495 78.04C262.263 79.192 263.191 80.152 264.279 80.92C265.367 81.624 266.615 81.976 268.023 81.976C269.239 81.976 270.263 81.656 271.095 81.016C271.927 80.376 272.631 79.576 273.207 78.616C273.783 77.656 274.263 76.632 274.647 75.544C275.095 74.392 275.511 73.368 275.895 72.472C276.215 72.536 276.471 72.568 276.663 72.568C276.919 72.568 277.175 72.568 277.431 72.568H280.887C281.399 72.568 281.911 72.6 282.423 72.664C282.935 72.664 283.511 72.696 284.151 72.76C284.151 78.008 283.031 82.328 280.791 85.72C280.023 86.68 279.319 87.448 278.679 88.024C278.039 88.536 277.303 88.952 276.471 89.272C275.639 89.528 274.615 89.688 273.399 89.752C272.247 89.816 270.743 89.848 268.887 89.848C267.799 89.848 266.679 89.848 265.527 89.848C264.439 89.784 263.255 89.688 261.975 89.56C260.119 89.368 258.391 88.536 256.791 87.064C255.191 85.528 253.783 83.544 252.567 81.112C251.351 78.68 250.391 75.896 249.687 72.76C249.047 69.624 248.727 66.296 248.727 62.776C248.727 58.424 249.367 55 250.647 52.504C251.927 49.944 253.495 48.024 255.351 46.744C257.271 45.4 259.287 44.568 261.399 44.248C263.575 43.864 265.559 43.672 267.351 43.672C269.591 43.672 271.639 43.8 273.495 44.056C275.351 44.248 276.759 44.6 277.719 45.112C282.519 47.544 284.919 52.568 284.919 60.184C284.919 61.08 284.855 62.008 284.727 62.968C284.663 63.864 284.471 64.76 284.151 65.656C283.959 65.72 283.479 65.752 282.711 65.752C279.575 65.56 276.983 65.432 274.935 65.368C272.951 65.304 271.511 65.208 270.615 65.08C269.719 64.952 268.855 64.792 268.023 64.6C267.191 64.344 266.327 64.216 265.431 64.216C264.919 64.216 264.439 64.28 263.991 64.408C263.607 64.472 263.223 64.504 262.839 64.504C262.455 64.504 262.103 64.344 261.783 64.024ZM274.551 59.992C274.679 60.12 274.743 60.248 274.743 60.376C274.807 60.44 274.935 60.472 275.127 60.472C275.255 60.472 275.479 60.12 275.799 59.416C276.119 58.712 276.279 58.2 276.279 57.88C276.279 56.6 275.895 55.48 275.127 54.52C274.423 53.496 273.719 52.568 273.015 51.736C272.951 51.8 272.791 51.832 272.535 51.832C272.023 51.832 271.543 51.672 271.095 51.352C270.647 50.968 270.135 50.776 269.559 50.776C269.303 50.776 269.047 50.808 268.791 50.872C268.599 50.872 268.375 50.872 268.119 50.872C267.479 50.872 266.967 50.744 266.583 50.488C266.199 50.168 265.687 50.008 265.047 50.008C264.343 50.008 263.767 50.2 263.319 50.584C262.871 50.904 262.455 51.32 262.071 51.832L261.015 53.368C260.695 53.88 260.343 54.328 259.959 54.712C260.023 54.776 260.055 55.096 260.055 55.672C260.055 56.12 259.991 56.568 259.863 57.016C259.799 57.464 259.767 57.912 259.767 58.36C259.767 58.872 259.895 59.256 260.151 59.512C260.471 59.704 260.727 59.928 260.919 60.184C261.047 59.48 261.527 59.128 262.359 59.128C263.447 59.128 264.855 59.352 266.583 59.8C268.375 60.184 270.039 60.376 271.575 60.376C273.111 60.376 274.103 60.248 274.551 59.992ZM262.263 57.976C262.263 57.464 262.167 57.016 261.975 56.632C261.783 56.184 261.687 55.768 261.687 55.384C261.687 54.872 261.911 54.424 262.359 54.04C262.871 53.592 263.479 53.24 264.183 52.984C264.951 52.664 265.783 52.44 266.679 52.312C267.575 52.12 268.471 52.024 269.367 52.024C271.351 52.024 272.663 52.536 273.303 53.56C273.943 54.584 274.263 55.928 274.263 57.592C273.943 57.592 273.591 57.592 273.207 57.592C272.887 57.528 272.599 57.496 272.343 57.496C271.895 57.496 271.671 57.624 271.671 57.88C271.607 57.816 271.159 57.688 270.327 57.496V57.688C270.327 57.752 270.359 57.784 270.423 57.784C270.423 57.848 270.391 57.912 270.327 57.976C269.815 57.912 269.015 57.88 267.927 57.88C266.903 57.88 265.719 57.88 264.375 57.88C263.095 57.88 262.391 57.912 262.263 57.976Z" fill="white"/>
</g>
<defs>
<filter id="filter0_d_4_2" x="0.208008" y="20.344" width="287.959" height="75.904" filterUnits="userSpaceOnUse" color-interpolation-filters="sRGB">
<feFlood flood-opacity="0" result="BackgroundImageFix"/>
<feColorMatrix in="SourceAlpha" type="matrix" values="0 0 0 0 0 0 0 0 0 0 0 0 0 0 0 0 0 0 127 0" result="hardAlpha"/>
<feOffset dy="2"/>
<feGaussianBlur stdDeviation="1"/>
<feComposite in2="hardAlpha" operator="out"/>
<feColorMatrix type="matrix" values="0 0 0 0 0 0 0 0 0 0 0 0 0 0 0 0 0 0 0.15 0"/>
<feBlend mode="normal" in2="BackgroundImageFix" result="effect1_dropShadow_4_2"/>
<feBlend mode="normal" in="SourceGraphic" in2="effect1_dropShadow_4_2" result="shape"/>
</filter>
</defs>
</svg>
